<svg width="19" height="19" viewBox="0 0 19 19" fill="none" xmlns="http://www.w3.org/2000/svg">
<g clip-path="url(#clip0_699_12491)">
<path fill-rule="evenodd" clip-rule="evenodd" d="M6.24768 2.43163C6.49842 2.38441 6.68456 2.4778 6.80607 2.71179C6.83879 2.92062 6.84973 3.13073 6.83892 3.34214C9.02868 3.34214 11.2185 3.34214 13.4083 3.34214C13.3625 3.01562 13.4282 2.72379 13.6053 2.46665C13.8324 2.388 14.0186 2.44637 14.1637 2.64175C14.2502 2.86505 14.283 3.09852 14.2623 3.34214C15.0977 3.17617 15.8094 3.40963 16.3973 4.04253C16.5029 4.24439 16.5905 4.4545 16.6601 4.67288C16.7249 8.20228 16.703 11.7275 16.5944 15.2488C16.3878 15.8673 15.9827 16.2526 15.3791 16.4044C11.8535 16.4511 8.32799 16.4511 4.80242 16.4044C4.23038 16.2335 3.84716 15.8483 3.65279 15.2488C3.54421 11.7275 3.52231 8.20228 3.58709 4.67288C4.01486 3.50489 4.81413 3.06132 5.9849 3.34214C5.93001 2.98537 6.01761 2.68186 6.24768 2.43163Z" fill="#372E2C"/>
<path fill-rule="evenodd" clip-rule="evenodd" d="M5.39435 5.09312C8.5477 5.08145 11.701 5.09312 14.8542 5.12814C14.9089 5.18651 14.9637 5.24488 15.0184 5.30324C15.0623 5.70013 15.0623 6.09701 15.0184 6.4939C14.957 6.67614 14.8366 6.78119 14.6571 6.80908C11.6133 6.85577 8.56951 6.85577 5.52573 6.80908C5.3834 6.75071 5.28486 6.64565 5.23011 6.4939C5.18632 6.09701 5.18632 5.70013 5.23011 5.30324C5.29876 5.24207 5.35351 5.17203 5.39435 5.09312Z" fill="white"/>
<path fill-rule="evenodd" clip-rule="evenodd" d="M10.7818 8.80516C11.8274 8.62054 12.4953 9.06409 12.7855 10.1359C13.0311 11.2698 12.845 12.3087 12.2271 13.2526C11.5472 13.7618 10.8684 13.7618 10.1906 13.2526C9.99701 12.9916 9.86562 12.6997 9.79645 12.3771C9.99826 12.3549 10.1953 12.3783 10.3877 12.4472C10.5171 12.8721 10.7908 13.0822 11.2089 13.0775C11.7775 13.0787 12.106 12.7752 12.1943 12.167C12.2598 11.8888 12.2817 11.6086 12.26 11.3266C11.4508 12.2009 10.6844 12.1542 9.96068 11.1865C9.56797 10.1188 9.84164 9.32506 10.7818 8.80516Z" fill="white"/>
<path fill-rule="evenodd" clip-rule="evenodd" d="M8.80999 13.4978C8.65673 13.4978 8.5034 13.4978 8.35014 13.4978C8.35014 12.167 8.35014 10.8363 8.35014 9.50557C8.26533 9.48897 8.19963 9.51229 8.15306 9.57561C7.86952 9.76051 7.58487 9.94723 7.29904 10.1359C7.20011 9.89492 7.22198 9.6731 7.36473 9.47055C7.67133 9.28376 7.97785 9.09703 8.28444 8.91024C8.48034 8.87536 8.67742 8.86366 8.87568 8.87522C8.89743 10.4282 8.87549 11.969 8.80999 13.4978Z" fill="white"/>
<path fill-rule="evenodd" clip-rule="evenodd" d="M10.979 9.2954C11.9136 9.2061 12.3188 9.64966 12.1943 10.6261C11.9925 11.2418 11.5873 11.4869 10.979 11.3616C10.3815 11.0387 10.1954 10.5367 10.4206 9.85571C10.5569 9.60519 10.743 9.41839 10.979 9.2954Z" fill="#372E2C"/>
<path fill-rule="evenodd" clip-rule="evenodd" d="M8.15234 9.57558C8.19892 9.51227 8.26461 9.48894 8.34942 9.50554C8.34942 10.8363 8.34942 12.167 8.34942 13.4978C8.50269 13.4978 8.65602 13.4978 8.80928 13.4978C8.64846 13.5659 8.47326 13.5892 8.28373 13.5678C8.32669 12.2116 8.28288 10.8809 8.15234 9.57558Z" fill="#CFCFCF"/>
</g>
<defs>
<clipPath id="clip0_699_12491">
<rect width="18" height="18" fill="white" transform="translate(0.5 0.785706)"/>
</clipPath>
</defs>
</svg>
