<svg width="234" height="233" viewBox="0 0 234 233" fill="none" xmlns="http://www.w3.org/2000/svg">
<mask id="mask0_1897_30891" style="mask-type:luminance" maskUnits="userSpaceOnUse" x="-84" y="-84" width="400" height="400">
<path d="M316 -84H-84V316H316V-84Z" fill="white"/>
</mask>
<g mask="url(#mask0_1897_30891)">
<mask id="mask1_1897_30891" style="mask-type:luminance" maskUnits="userSpaceOnUse" x="-84" y="-84" width="400" height="400">
<path d="M316 -84H-84V316H316V-84Z" fill="white"/>
</mask>
<g mask="url(#mask1_1897_30891)">
<path d="M162.001 227.6C163.401 227 164.801 226.5 165.801 225.2C166.601 223.6 167.301 221.8 167.701 220C167.901 219.1 168.001 218.2 168.101 217.2C168.201 216.2 168.401 215.2 168.401 214.3C168.501 212.9 168.501 211.6 168.401 210.2C168.001 206.1 166.801 202 164.601 198.4C161.301 192.6 155.701 187.9 149.301 184.8C142.901 181.7 135.701 180.1 128.601 180.2C114.301 180.5 99.8009 188.1 93.5009 200.1C90.5009 206 89.4009 213.1 90.4009 219.6C90.8009 222.1 91.6009 224.6 92.6009 226.9C92.5009 226.6 96.4009 225.6 96.7009 225.5C97.7009 225.2 98.7009 224.9 99.7009 224.5C101.101 223.9 102.201 223 103.501 222.4C105.201 221.7 107.601 221.2 109.301 222.2C110.801 223.1 111.701 224.2 113.501 224.4C114.701 224.6 116.001 224.4 117.101 224.9C118.001 225.3 118.801 226.2 119.801 226.4C120.901 226.6 122.001 226 122.901 225.4C124.401 224.5 125.901 224.6 127.601 224.4C128.901 224.3 130.201 224.2 131.401 224.3C132.601 224.4 133.101 225.1 134.101 225.7C136.101 226.8 138.501 227.4 140.801 227.3C141.801 227.2 142.801 227.1 143.701 227.2C145.401 227.5 146.801 229.4 148.301 230.2C150.201 231.2 152.401 231.5 154.401 231C156.501 230.5 158.301 229.2 160.201 228.2C161.001 228 161.501 227.8 162.001 227.6Z" fill="#D68260"/>
</g>
<mask id="mask2_1897_30891" style="mask-type:luminance" maskUnits="userSpaceOnUse" x="-84" y="-84" width="400" height="400">
<path d="M316 -84H-84V316H316V-84Z" fill="white"/>
</mask>
<g mask="url(#mask2_1897_30891)">
<path d="M3.59954 111.5C3.69954 111.7 3.79954 111.9 3.89954 112.1C4.29954 112.7 4.69954 113.2 5.19954 113.7C5.69954 114.1 6.19954 114.3 6.69954 114.7C6.99954 114.9 7.29954 115.2 7.59954 115.5C7.79954 115.8 7.89954 116.2 8.29954 116.4C9.39954 117 10.0995 118 10.9995 118.8C11.6995 119.5 12.5995 119.9 13.3995 120.3C15.1995 117.5 17.0995 114.8 19.1995 112.2C24.2995 106.1 30.5995 100.7 37.7995 96.7C41.3995 94.7 45.3995 93.2 49.3995 92.1C53.3995 91 57.4995 90.4 61.3995 90.1C69.2995 89.6 76.6995 90.2 83.6995 90.6C90.6995 91.1 97.0995 91.0999 103.9 90.3999C117.4 89.0999 131.1 85.5 145.8 83.6C153.1 82.7 160.8 82.1 168.5 82.6C176.3 83 184.1 84.8 191.4 87.6C206 93.2 219.1 103.2 227.9 116.2C228 116.4 228.1 116.5 228.2 116.7C228.4 116.1 228.2 115.5 228.6 114.9C228.9 114.3 229.5 114 229.9 113.4C230.2 112.9 230.1 112.4 230.1 111.9C230.1 111.4 230.3 110.9 230.5 110.4C230.7 110 231.1 109.6 231.3 109.2C231.7 108.2 231.1 106.8 230.8 105.8C230.7 105.4 230.4 104.8 230.5 104.3C230.6 103.8 231 103.3 231.1 102.9C231.3 102.3 231.3 101.6 231.1 101C230.7 99.7 229.2 99.3 229 98C228.8 96.7 228.6 95.2999 227.5 94.3999C226.1 93.1999 224.2 92.6 223.5 90.7C223.1 89.6 223.6 88.5 223.1 87.5C222.7 86.6 221.8 85.8999 221.7 84.8999C221.6 84.2999 221.7 83.7 221.6 83C221.5 81.7 220.8 80.8 220.2 79.7C219.9 79.2 219.6 78.8 219.3 78.3C219.2 78.1 219 76.8 219.1 76.9C209.7 70.3 200 64.3 189.8 59.8C180.6 55.8 171 53 161.3 52.3C151.7 51.4 141.8 52.8 131.8 54.7C111.7 58.6 90.9995 66.4 68.0995 67.3C56.7995 67.9 44.5995 66.6 33.5995 61.6C30.4995 60.2 27.4995 58.6 24.6995 56.8C24.3995 56.8 24.1995 56.7 23.9995 56.7C21.7995 56.5 19.8995 57.2 18.0995 58.5C16.4995 59.5 14.9995 60.8 12.9995 61.1C11.3995 61.3 9.79955 61.2 8.79955 62.6C7.99955 63.8 7.69954 65.3 6.49954 66.2C5.89954 66.7 5.09954 66.9999 4.49954 67.3999C3.89954 67.8999 3.39954 68.6 3.39954 69.4C3.39954 69.9 3.69954 70.4 3.89954 70.8C4.29954 71.6 3.99954 72 3.69954 72.8C3.49954 73.3 3.29954 73.9 3.19954 74.4C3.09954 75.2 3.39955 76.1 3.79955 76.8C4.19955 77.5 4.89954 78 5.29954 78.7C5.59954 79.3 5.59954 80 5.49954 80.7C5.29954 81.5 4.89954 82.2 4.59954 83C4.19954 84.1 4.09955 85.4 3.79955 86.5C3.59955 87 3.29954 87.3 2.89954 87.6C1.89954 88.4 2.19954 89.4 2.59954 90.5C2.99954 91.4 3.19954 92.8 2.99954 93.8C2.79954 94.9 1.89954 95.6 1.59954 96.6C1.39954 97.3 1.29954 98 1.59954 98.7C1.79954 99.1 2.09954 99.4999 2.29954 99.8999C3.09954 101.4 2.59954 103 1.69954 104.3C0.999539 105.3 0.39954 106.1 0.59954 107.4C0.69954 108.1 1.09954 108.8 1.59954 109.3C2.09954 109.8 2.39954 110.3 2.89954 110.8C3.19954 110.9 3.39954 111.2 3.59954 111.5Z" fill="#D68260"/>
</g>
<mask id="mask3_1897_30891" style="mask-type:luminance" maskUnits="userSpaceOnUse" x="-84" y="-84" width="400" height="400">
<path d="M316 -84H-84V316H316V-84Z" fill="white"/>
</mask>
<g mask="url(#mask3_1897_30891)">
<path d="M193.8 45.9C196.1 44.5 193.5 39.4 192.2 38.2C191.2 37.2 189.8 36.9 188.7 36C187.9 35.3 187.4 34.2 186.5 33.5C184.6 31.8 182.1 30.7001 179.6 30.4001C177.6 30.2001 175.7 30.5001 173.7 30.3001C171.5 30.1001 170.1 29.2 168.8 27.5C167.6 25.9 165.8 24.7 164.5 23.1C163.4 21.8 162.7 20.8001 160.8 20.8001C160 20.8001 158.7 21.2 158.1 20.5C157.8 20.1 157.7 19.6 157.6 19.1C157.2 17.9 156 17 154.8 16.5C153.6 16 152.2 16.0001 150.9 15.9001C149.6 15.8001 148.2 15.8 147 15.1C146.4 14.7 145.9 14.2001 145.3 13.8001C144 12.7001 142.6 12.3 141.2 11.6C139.9 10.9 138.7 11 137.3 11.6C136.2 12.1 134.8 12.3 133.6 12.5C131.6 12.8 128.8 13.2 127.2 11.6C127 11.4 126.6 11.3 126.3 11.2C125.2 10.8 124.4 10 123.2 10C122.6 10 121.9 10 121.3 9.70005C120.7 9.40005 120.3 8.80005 119.9 8.30005C119 7.20005 117.4 7.20005 116.7 6.00005C116.4 5.50005 116.4 4.80005 116.1 4.20005C115.7 3.50005 114.8 3.20005 114 3.10005C113.2 3.10005 112.4 3.30005 111.6 3.50005C109.4 3.90005 107.1 3.60005 105 2.60005C104 2.10005 103.3 1.40005 102.3 1.20005C101.2 0.900046 100 0.800049 98.8 1.00005C95.7 1.40005 94 3.60005 91.7 5.60005C90.8 6.40005 89.8 7.30005 88.8 8.00005C87.8 8.70005 87.1 9.10005 85.8 8.80005C85 8.60005 84.2 8.30005 83.4 8.50005C82.1 8.70005 81.2 9.80005 80.3 10.8001C79.7 11.5001 79.1 12.1 78.3 12.5C77.5 12.9 76.7 12.7001 75.8 12.9001C75.5 13.0001 75.2 13.1001 75 13.3001C74.9 13.5001 74.8 13.7 74.7 14C74.6 14.4 74.6 14.6001 74.4 14.9001C74.2 15.2001 73.8 15.3 73.5 15.5C72.8 15.8 72.1 15.9001 71.3 15.9001C70 15.9001 68.8 15.6 67.6 15.7C63.4 16 59.5 19.3 57.1 22.5C55.6 24.6 54.5 27 52.9 29C51.5 30.8 49.9 32.0001 47.8 32.8001C46.3 33.4001 44.3 33.6 43 34.6C42.2 35.2 41.7 36.0001 41.1 36.8001C39.3 39.6001 37 42.4 36 45.5C37.3 46.4 38.7 47.3001 40.1 48.1001C48.3 52.5001 57.7 54.7001 67.7 54.3001C77.6 54.0001 87.6 51.7 97.7 49C107.8 46.3 118 42.9 128.8 40.5C139.5 38 151 36.7001 162.7 37.8001C170.1 38.6001 177.5 40.4001 184.5 42.9001C186.2 43.5001 187.9 44.2 189.6 44.9C190.6 45.1 192.8 46.5 193.8 45.9Z" fill="#D68260"/>
</g>
<mask id="mask4_1897_30891" style="mask-type:luminance" maskUnits="userSpaceOnUse" x="-84" y="-84" width="400" height="400">
<path d="M316 -84H-84V316H316V-84Z" fill="white"/>
</mask>
<g mask="url(#mask4_1897_30891)">
<path d="M216.899 175.2C218.899 172.7 222.499 172.6 224.199 169.7C225.899 166.9 224.299 162 223.499 158.9C222.699 155.8 223.299 153.8 223.599 150.6C223.899 147.2 223.699 143.6 222.499 140.3C221.499 137.4 219.899 134.8 218.499 132.1C217.099 129.3 216.899 126 214.999 123.4C212.599 120.1 209.699 117 206.699 114.3C200.599 108.9 193.499 104.7 185.899 101.8C173.999 97.2 161.099 96.8 147.599 98.4C134.099 100.1 120.199 103.3 105.399 105.1C97.9994 106 90.1994 106.2 82.9994 106C75.7994 105.9 68.9994 105.6 62.6994 106.3C56.3994 106.8 50.7994 108.4 45.5994 111.1C40.3994 113.9 35.5994 117.8 31.4994 122.5C23.2994 132 18.3994 144 16.0994 157C15.8994 158.2 15.6994 159.4 15.4994 160.7C15.2994 162.1 14.8994 163.5 15.0994 164.9C15.3994 166.6 15.8994 167.9 15.4994 169.7C15.3994 170.2 15.1994 170.7 15.0994 171.2C14.8994 173 16.1994 174.4 16.4994 176C16.7994 177.5 17.2994 179.1 18.5994 180C19.5994 180.7 20.8994 181.5 22.0994 181.2C22.5994 181.1 23.0994 180.9 23.5994 180.9C24.3994 181 24.9994 181.7 25.4994 182.3C26.7994 184 27.8994 183.2 29.5994 183C30.2994 182.9 31.0994 183.1 31.5994 183.6C31.8994 183.9 32.0994 184.2 32.3994 184.4C32.7994 184.7 33.2994 184.7 33.7994 184.6C34.5994 184.4 35.0994 184.1 35.8994 183.9C36.0994 183.9 38.3994 183.5 38.3994 183.6C38.8994 180.4 38.9994 177.3 39.7994 174.2C41.4994 167.3 44.3994 160.7 48.7994 154.9C53.1994 149.1 59.2994 144 66.7994 141.6C74.2994 139 81.5994 139.3 87.6994 139.5C90.7994 139.6 93.6994 139.7 96.3994 139.7C99.0994 139.6 101.499 139.3 104.199 138.7C109.399 137.5 114.799 135.2 120.599 132.8C126.299 130.5 132.499 127.9 139.399 126.5C146.199 125.1 153.199 124.9 159.999 125.7C166.799 126.4 173.499 128.3 179.899 130.9C186.299 133.6 192.299 137.2 197.599 141.9C207.399 150.3 213.999 162.1 216.699 174.5" fill="#D68260"/>
</g>
<mask id="mask5_1897_30891" style="mask-type:luminance" maskUnits="userSpaceOnUse" x="-84" y="-84" width="400" height="400">
<path d="M316 -84H-84V316H316V-84Z" fill="white"/>
</mask>
<g mask="url(#mask5_1897_30891)">
<path d="M200.1 190.3C201.2 190.3 202.3 190.3 202.3 190.2C201.9 176.4 196.6 162.9 187.1 153.3C179.6 145.7 169.3 140.6 158.5 139.1C153.1 138.3 147.6 138.6 142.3 139.7C137 140.7 131.7 142.9 126.1 145.4C120.5 147.8 114.5 150.5 107.8 152.3C104.5 153.2 100.8 153.8 97.2998 153.9C93.7998 154.1 90.5998 154 87.4998 153.9C81.3998 153.7 75.9998 153.7 71.7998 155.3C67.4998 156.8 63.5998 159.8 60.4998 163.7C57.3998 167.7 55.1998 172.5 53.8998 177.6C53.1998 180.2 52.8998 182.7 52.6998 185.4C52.4998 188.1 52.5998 190.9 52.8998 193.6C53.7998 202.7 56.4998 212 59.5998 221.4C59.6998 221.6 61.7998 221 61.9998 221C63.0998 220.8 64.0998 221 65.0998 221.3C66.2998 221.7 67.2998 222.7 68.4998 223.1C69.6998 223.5 70.7998 223.8 71.9998 224.3C72.7998 224.6 73.5998 225 74.3998 225C75.2998 225 75.7998 224.8 76.6998 225.1C76.4998 223.9 76.2998 222.7 76.1998 221.5C75.1998 211.9 77.0998 202.2 81.8998 193.7C86.6998 185.4 93.8998 178.8 102 174.5C110.2 170.2 119.2 167.9 128.3 167.7C137.5 167.4 146.6 169.3 155 173.2C163.3 177.1 170.9 183.2 176.1 191.3C179 195.7 181 200.7 182 205.9C182.1 206.5 183.9 206.5 184.2 206.5C185.2 206.6 186.1 206.7 186.9 205.9C187.9 204.8 187.7 202.7 188.9 201.9C190.1 201 190.9 200.6 191.4 199.1C191.7 198.1 191.7 197.1 192.2 196.2C192.6 195.3 193.4 194.9 193.7 194C193.9 193.4 194 192.7 194.3 192.2C195 190.9 196.5 190.6 197.8 190.4C198.2 190.2 199.1 190.3 200.1 190.3Z" fill="#D68260"/>
</g>
</g>
</svg>
