<svg width="512" height="512" viewBox="0 0 512 512" fill="none" xmlns="http://www.w3.org/2000/svg">
<g clip-path="url(#clip0_1075_22281)">
<path d="M0 0H512V512H0V0Z" fill="#FEFEFE"/>
<path d="M246.969 76.1607C249.308 75.9116 251.824 76.0245 254.177 76.0319C262.766 76.0589 271.358 77.138 279.704 79.1731C307.793 86.0234 330.428 104.47 345.234 128.995C364.911 161.589 368.743 202.37 361.48 239.206C358.464 254.502 353.722 270.306 355.051 286.031C355.758 294.389 357.703 302.576 360.982 310.302C362.938 314.912 365.6 318.988 367.827 323.426C372.602 332.941 375.285 344.72 374.182 355.383C373.775 359.31 372.703 363.024 371.757 366.842C383.548 371.741 395.398 376.519 406.768 382.359C413.181 385.654 420.619 389.147 425.057 395.045C427.985 398.936 429.786 403.659 431.285 408.249C434.785 418.967 436.278 430.102 437.086 441.307C438.26 457.576 437.79 473.972 437.779 490.277L437.798 507.495C437.804 510.046 438.131 513.081 437.723 515.563C437.61 516.247 437.418 516.571 436.811 516.939C436.231 517.295 435.599 517.375 434.961 517.166C434.551 517.033 433.909 516.624 433.714 516.22C433.253 515.27 433.402 513.948 433.398 512.918L433.394 505.737V472.916C433.386 455.977 433.533 439.051 430.398 422.32C429.176 415.801 427.546 409.263 424.735 403.231C423.108 399.74 421.003 396.892 418.013 394.455C415.189 392.152 411.969 390.394 408.779 388.654L394.165 381.397L358.815 366.588L335.607 358.293L340.702 377.683L348.419 406.339L352.826 422.755C353.565 425.45 354.821 428.643 355.044 431.42C355.113 432.282 355.046 432.63 354.459 433.235C354.164 433.54 353.903 433.762 353.476 433.827C352.567 433.964 351.514 433.83 350.591 433.829L345.544 433.858L323.651 433.811L342.759 451.073C343.827 452.01 346.334 453.79 346.4 455.176C346.423 455.677 346.386 456.042 346.149 456.501C344.929 458.862 343.015 461.175 341.505 463.377L333.819 474.827L313.793 505.16L308.286 513.615C307.573 514.711 306.892 516.185 305.975 517.099C305.533 517.539 304.732 517.832 304.11 517.739C303.132 517.588 302.632 516.868 302.14 516.096C302.066 515.457 302.264 514.982 302.561 514.427C303.732 512.238 305.257 510.126 306.599 508.035L316.013 493.684L341.234 455.859L322.311 438.535C320.56 436.919 317.11 434.628 316.148 432.53C316.12 431.713 316.071 430.9 316.692 430.271C317.057 429.902 317.457 429.755 317.963 429.675C320.301 429.307 323.253 429.605 325.668 429.576L349.798 429.614C348.588 423.182 346.803 416.925 345.07 410.609L339.531 390.373L330.636 356.607L309.701 349.878C309.142 365.166 307.31 380.434 305.028 395.553L300.125 424.484C294.755 449.811 286.162 474.594 275.277 498.072L268.174 512.356C267.301 514.027 266.518 516.149 265.249 517.53C264.8 517.739 264.48 517.872 263.977 517.841C263.25 517.801 262.561 517.525 262.086 516.957C261.731 516.531 261.603 515.963 261.697 515.435C261.922 514.156 262.895 512.724 263.492 511.573L267.475 503.862C271.942 495.087 275.847 485.926 279.481 476.774C289.732 450.952 297.236 423.482 300.424 395.834C290.209 402.347 278.021 406.424 266.079 408.067C250.467 409.724 234.493 407.44 220.45 400.207C217.63 398.756 214.983 396.955 212.301 395.266L216.399 420.514C220.858 442.446 227.928 463.967 236.75 484.526L245.847 504.318C247.527 507.732 249.714 511.203 251.075 514.738C251.34 515.43 251.519 515.963 251.142 516.651C250.854 517.179 250.188 517.712 249.601 517.801C249.014 517.885 248.155 517.858 247.691 517.459C246.732 516.638 245.898 514.449 245.289 513.275L237.3 496.788C229.791 480.157 223.031 463.243 217.971 445.687C211.299 422.539 207.634 398.592 205.412 374.633L203.738 349.663L182.67 356.854L163.23 429.418L184.267 429.482C187.409 429.492 190.802 429.241 193.922 429.598C194.432 429.656 194.831 429.722 195.247 430.046C195.758 430.444 196.04 431.22 196.034 431.864C196.03 432.413 195.859 432.758 195.524 433.179C193.143 436.164 189.738 438.835 186.93 441.436L171.627 455.861C172.016 457.129 173.431 458.69 174.21 459.816L179.468 467.602L200.653 499.22L207.224 509.184C208.375 510.912 209.797 512.669 210.72 514.52C211.048 515.182 211.123 515.772 210.834 516.478C210.617 517.011 210.074 517.521 209.538 517.69C208.844 517.912 208.142 517.752 207.511 517.459C204.745 514.001 202.493 510.096 200.049 506.411L188.204 488.739L177.675 472.982L167.164 457.468C166.739 456.772 166.252 456.055 166.294 455.205C166.317 454.726 166.443 454.381 166.76 454.01C167.331 453.34 168.243 452.757 168.912 452.173L172.027 449.29L188.275 433.985L167.925 433.968C165.133 433.986 161.871 434.375 159.154 433.855C158.725 433.586 158.507 433.452 158.249 432.993C157.939 432.443 157.899 431.785 158.009 431.177C158.4 429.005 159.136 426.817 159.704 424.681L163.518 410.466L177.55 358.708L125.682 378.095L112.154 383.54C107.545 385.39 102.377 387.033 98.3467 389.969C94.0483 393.1 90.6706 397.66 88.4097 402.443C85.5136 408.569 83.9084 415.301 82.6881 421.936C79.9301 436.935 79.5426 452.12 79.4791 467.328L79.4911 495.621L79.551 509.376C79.563 511.147 79.9088 513.557 79.5008 515.239C79.3401 515.901 79.0742 516.269 78.5114 516.633C78.0248 516.948 77.3123 517.037 76.7419 516.86C76.1835 516.686 75.3827 516.065 75.2158 515.488C74.7923 514.023 75.123 511.459 75.1221 509.871L75.1097 495.139L75.0866 470.315C75.0395 457.994 75.2703 445.804 76.5271 433.534C77.6182 422.88 79.4746 411.967 83.7167 402.075C86.298 396.054 90.4255 390.296 95.7161 386.378C98.4057 384.386 101.502 383.087 104.572 381.805L115.511 377.421L141.582 367.118C136.382 354.049 138.531 338.659 144.279 326.164C147.132 319.963 150.704 314.152 153.174 307.771C155.884 300.77 157.273 293.373 157.98 285.923C158.756 277.736 157.967 269.298 156.897 261.175L152.33 231.963L149.125 202.625C146.734 170.746 154.518 135.708 175.762 111.074C189.381 95.2835 207.096 84.1859 227.36 79.1272C233.824 77.5135 240.335 76.6516 246.969 76.1607Z" fill="#372E2C"/>
<path d="M173.143 212.228C173.646 212.223 173.607 212.169 174.075 212.46C174.098 220.236 174.809 228.309 176.299 235.948C177.3 241.078 178.354 246.277 179.875 251.282C180.309 252.707 181.902 255.811 181.64 257.146C181.124 257.437 180.835 257.563 180.239 257.577C178.538 256.903 177.609 255.762 176.556 254.345C172.655 249.091 169.925 243.142 167.772 236.998C165.889 231.624 164.45 226.12 164.246 220.398C164.164 218.088 164.495 215.25 166.229 213.543C167.771 212.025 171.092 212.29 173.143 212.228Z" fill="white"/>
<path d="M339.83 212.135C341.849 212.009 343.944 211.956 345.722 213.072C347.584 214.241 348.871 216.606 349.279 218.739C349.594 220.388 349.644 222.318 349.416 223.988C349.001 227.037 347.787 230.047 346.735 232.926C344.16 239.978 341.286 247.049 337.128 253.341C336.089 254.755 334.99 256.181 333.501 257.14C332.718 257.241 332.238 257.015 331.523 256.711C331.341 255.925 332.161 253.898 332.406 253.038L334.764 244.327C337.402 233.743 338.691 222.962 339.83 212.135Z" fill="white"/>
<path d="M298.355 343.622C300.403 345.613 302.613 346.955 305.084 348.357C305.192 355.076 304.495 362.054 303.846 368.744C303.166 375.75 302.47 382.809 301.253 389.743C290.453 396.527 279.009 401.966 266.197 403.592C250.498 405.585 232.843 402.494 219.173 394.374C216.46 392.763 213.986 390.725 211.491 388.801L209.821 373.213L208.292 348.158C210.487 347.03 212.434 345.441 214.335 343.886C214.857 344.831 215.037 346.413 215.374 347.483C216.435 350.85 217.634 354.182 219.428 357.239C225.581 367.722 234.432 375.4 246.335 378.457C256.584 381.088 268.243 379.708 277.352 374.241C284.881 369.723 291.472 362.331 295.027 354.29C296.548 350.849 297.467 347.262 298.355 343.622Z" fill="#9C9C9C"/>
<path d="M221.18 316.601L227.351 321.167C235.026 326.295 243.909 329.979 253.12 331.061C266.875 332.678 280.719 325.123 291.153 316.913C291.382 319.156 291.265 321.488 291.286 323.743C291.34 329.434 292.247 333.68 294.626 338.851C294.054 345.355 291.365 352.406 287.964 357.934C286.634 360.105 284.95 362.181 283.173 364C276.416 370.92 267.211 375.244 257.467 375.271C247.1 375.3 237.654 371.725 230.284 364.335C224.428 358.462 220.885 351.263 218.761 343.316C218.46 342.188 217.717 340.086 217.803 338.99C217.852 338.373 218.715 336.997 218.986 336.365C219.556 335.034 220.026 333.684 220.382 332.28C221.642 327.321 221.18 321.691 221.18 316.601Z" fill="white"/>
<path d="M291.329 135.14C292.923 138.42 295.079 141.468 297.209 144.413C302.588 151.849 308.811 158.53 315.726 164.566L320.276 168.34C321.518 169.275 323.45 170.357 324.336 171.592C325.479 173.184 326.256 175.258 327.027 177.06C329.457 182.728 331.32 188.573 332.682 194.585C333.902 199.966 335.203 205.94 335.259 211.476C335.306 216.176 334.328 221.302 333.63 225.947C330.459 247.053 324.336 267.211 312.864 285.356C308.479 292.29 303.513 298.56 297.858 304.498C288.811 313.997 277.597 322.78 264.54 325.672C253.087 328.209 241.206 324.671 231.492 318.448C207.75 303.305 192.381 277.215 184.44 250.748C182.471 244.185 181.104 237.316 180.05 230.55C178.303 219.329 176.774 206.373 182.473 195.991C188.663 184.714 199.786 182.498 211.286 179.713L230.915 174.724C251.114 168.873 272.727 160.477 286.1 143.387C288.135 140.786 289.741 138.022 291.329 135.14Z" fill="white"/>
<path d="M249.705 80.4096C259.722 79.8698 270.449 81.1775 280.113 83.825C288.062 86.0024 296.048 89.1364 303.235 93.2058C319.749 102.558 333.215 116.89 342.593 133.296C360.763 165.086 364.121 203.757 356.831 239.206C353.58 255.015 348.886 271.504 350.535 287.764C351.453 296.813 353.845 305.641 357.588 313.928C359.546 318.263 362.131 322.218 364.167 326.486C367.707 333.907 370.082 343.044 369.855 351.314C369.726 356.003 368.776 360.529 367.544 365.039L330.705 351.933L314.218 346.557C311.886 345.805 309.323 345.271 307.082 344.308C305.011 343.418 303.266 342.086 301.699 340.479C299.138 337.854 297.24 334.531 296.397 330.951C295.812 328.465 295.827 325.77 295.801 323.23L295.851 312.605C297.889 311.041 299.671 309.145 301.462 307.31C310.332 298.223 317.925 286.82 323.577 275.462C325.883 270.83 327.699 266.055 329.737 261.311L330.331 261.489C330.967 261.686 331.601 261.942 332.277 261.935C334.548 261.911 336.671 260.598 338.222 259.031C342.445 254.757 345.36 248.337 347.749 242.892C350.662 236.252 354.03 228.54 353.95 221.178C353.909 217.39 352.581 213.226 349.794 210.556C346.79 207.679 343.219 207.873 339.396 207.977C339.221 205.006 338.651 202.05 338.125 199.125C336.485 190.003 333.774 180.714 329.633 172.403C329.022 171.178 328.413 169.526 327.515 168.497C326.82 167.7 325.806 167.019 324.97 166.354L320.174 162.487C314.953 158.052 310.026 153.266 305.61 148.02C302.603 144.448 299.768 140.737 297.35 136.739L294.439 131.577C293.984 130.706 293.495 129.446 292.832 128.716C292.422 128.267 291.843 127.946 291.218 127.994C290.582 128.042 289.975 128.428 289.619 128.949C288.731 130.251 288.186 131.961 287.395 133.36C285.315 137.038 282.952 140.398 280.184 143.59C262.483 162.798 235.6 169.162 211.212 175.154C202.904 177.195 194.093 178.7 187.061 183.925C179.259 189.721 175.603 198.794 174.273 208.143C172.016 208.075 169.091 207.716 166.922 208.378C164.331 209.17 162.358 210.84 161.124 213.254C158.923 217.56 159.675 223.072 160.512 227.635C161.048 230.555 161.7 233.391 162.62 236.216C165.039 243.642 170.475 257.922 177.812 261.477C179.59 262.339 181.101 262.263 182.934 261.638L183.277 261.52C185.171 266.197 186.967 270.947 189.157 275.497C195.841 289.387 205.201 302.18 216.609 312.534C216.64 317.795 217.045 323.478 216.396 328.681L216.343 329.098C216.094 331.12 215.588 333.02 214.765 334.884C213.242 338.33 210.571 341.461 207.315 343.368C204.835 344.821 201.754 345.536 199.038 346.45L185.939 350.903L145.631 365.463C140.851 351.853 143.601 337.751 149.7 325.062C152.03 320.214 154.924 315.664 156.937 310.665C159.995 303.076 161.716 294.698 162.462 286.572C162.986 280.867 162.714 274.821 162.27 269.121C161.348 257.273 159.17 245.504 157.266 233.782C155.375 222.137 153.793 210.352 153.323 198.553C152.079 167.33 160.141 134.212 181.869 110.862C199.591 91.8178 223.792 81.3784 249.705 80.4096Z" fill="#372E2C"/>
</g>
<defs>
<clipPath id="clip0_1075_22281">
<rect width="512" height="512" rx="256" fill="white"/>
</clipPath>
</defs>
</svg>
