<?xml version="1.0" encoding="UTF-8"?>
<svg version="1.1" xmlns="http://www.w3.org/2000/svg" width="772" height="181">
<path d="M0 0 C9.04346523 9.01291298 11.94960832 19.18273297 12.75 31.625 C12.8574353 33.06008911 12.8574353 33.06008911 12.96704102 34.52416992 C13.04719106 37.14435184 13.03833974 39.38523477 12.4375 41.9375 C8.05936115 45.9375 8.05936115 45.9375 4.4375 45.9375 C4.15777344 45.18726563 3.87804687 44.43703125 3.58984375 43.6640625 C-2.14078739 29.03344794 -9.8193221 19.6459437 -24.375 13.125 C-44.5974083 5.4013447 -61.9174884 7.73219505 -81.79394531 14.31542969 C-92.27968315 17.77176236 -101.55589951 19.04131861 -112.625 18.8125 C-123.93717458 18.75272629 -132.17907882 21.74706597 -140.2421875 29.56640625 C-146.44854406 36.22048505 -148.97975625 44.1282815 -150.5625 52.9375 C-164.36779509 52.08863072 -164.36779509 52.08863072 -168.5625 49.9375 C-172.73593423 44.2455391 -172.32110044 38.72878013 -171.5625 31.9375 C-168.4189033 18.35716225 -162.23195011 6.08026503 -150.5625 -2.0625 C-142.62971153 -6.43207167 -135.84588462 -8.18198325 -126.82421875 -8.2734375 C-125.27814471 -8.299208 -123.73208369 -8.32576928 -122.18603516 -8.35302734 C-121.38031067 -8.36630066 -120.57458618 -8.37957397 -119.7444458 -8.39324951 C-105.12686116 -8.65255972 -90.82779495 -9.45819762 -76.35400391 -11.64208984 C-48.84108379 -15.7856309 -23.03734994 -18.43685041 0 0 Z " fill="#F87B55" transform="translate(184.5625,91.0625)"/>
<path d="M0 0 C1.86360002 0.92077945 3.75295742 1.78893294 5.64404297 2.65185547 C11.6445351 5.65577381 14.53031621 8.00684527 17.08544922 14.31201172 C17.56691406 15.85308594 17.56691406 15.85308594 18.05810547 17.42529297 C18.85262363 20.30805665 18.85262363 20.30805665 22.02294922 21.99951172 C24.84203139 26.36908909 24.44482691 30.97754454 24.02294922 35.99951172 C23.02294922 39.12451172 23.02294922 39.12451172 22.02294922 40.99951172 C21.36294922 40.99951172 20.70294922 40.99951172 20.02294922 40.99951172 C18.99645645 39.87426017 18.02707226 38.69668527 17.08544922 37.49951172 C6.23116363 24.77612715 -9.82716999 17.66489451 -26.16455078 15.24951172 C-35.35224029 14.64704028 -44.22450775 15.19017925 -53.35205078 16.31201172 C-54.49851074 16.44518799 -55.6449707 16.57836426 -56.82617188 16.71557617 C-61.88535546 17.31621787 -66.91783467 17.94950319 -71.93017578 18.86669922 C-85.76872781 21.33854193 -99.40432229 21.1814457 -113.41503906 20.80102539 C-133.3198116 20.38188584 -148.28475736 25.00526844 -162.97705078 38.99951172 C-164.67324331 40.64192253 -166.33312101 42.30420914 -167.97705078 43.99951172 C-169.43671112 42.87623401 -170.89473442 41.75082878 -172.35205078 40.62451172 C-173.16416016 39.99802734 -173.97626953 39.37154297 -174.81298828 38.72607422 C-176.97705078 36.99951172 -176.97705078 36.99951172 -178.97705078 34.99951172 C-178.68469811 32.66069033 -178.35105864 30.32667172 -177.97705078 27.99951172 C-178.30705078 27.33951172 -178.63705078 26.67951172 -178.97705078 25.99951172 C-178.39702497 19.73523292 -178.39702497 19.73523292 -176.90673828 17.12451172 C-175.67694642 14.3135589 -176.01966701 12.39516901 -176.41455078 9.37451172 C-177.074273 4.19395616 -177.074273 4.19395616 -175.97705078 1.99951172 C-175.31705078 1.99951172 -174.65705078 1.99951172 -173.97705078 1.99951172 C-173.68830078 1.38076172 -173.39955078 0.76201172 -173.10205078 0.12451172 C-170.95824299 -3.924903 -168.2316866 -4.95267694 -164.10205078 -6.38330078 C-157.01515035 -8.44162848 -151.89947432 -5.8772591 -145.36376953 -3.24658203 C-122.22661143 5.26639771 -95.46504837 -2.47660627 -72.34863281 -7.57495117 C-46.42437014 -13.28059158 -23.93174961 -11.90276655 0 0 Z " fill="#F77B55" transform="translate(178.97705078125,50.00048828125)"/>
<path d="M0 0 C9.56426459 6.98592004 16.39486821 15.60481173 18.3984375 27.41015625 C18.64364522 29.28897757 18.82845695 31.1755264 19 33.0625 C17.906875 33.413125 16.81375 33.76375 15.6875 34.125 C12.30972696 35.54936212 12.05657409 35.94725647 10.3125 39.5 C9.879375 40.675625 9.44625 41.85125 9 43.0625 C7.125 45.5 7.125 45.5 5 47.0625 C2.3671875 47.16015625 2.3671875 47.16015625 0 47.0625 C-0.35191406 46.27746094 -0.70382813 45.49242187 -1.06640625 44.68359375 C-6.20414598 33.75080555 -12.55179025 26.40799106 -23.9296875 21.90234375 C-29.23968621 20.05509981 -34.36850057 18.4720636 -40 18.0625 C-40.76054688 17.99933594 -41.52109375 17.93617188 -42.3046875 17.87109375 C-53.82630538 17.34116771 -66.5582058 20.32647047 -76 27.0625 C-76.69480469 27.54203125 -77.38960937 28.0215625 -78.10546875 28.515625 C-84.76414326 33.66266796 -89.56063173 41.70435017 -91 50.0625 C-91.06688591 51.97811254 -91.08531719 53.89585592 -91.0625 55.8125 C-91.05347656 56.79734375 -91.04445313 57.7821875 -91.03515625 58.796875 C-91.02355469 59.54453125 -91.01195313 60.2921875 -91 61.0625 C-94.48823116 62.27650156 -96.59231201 61.82852712 -100.0625 60.6875 C-100.91972656 60.41164063 -101.77695313 60.13578125 -102.66015625 59.8515625 C-103.43230469 59.59117187 -104.20445313 59.33078125 -105 59.0625 C-105.99 58.7325 -106.98 58.4025 -108 58.0625 C-109.08226125 55.49555924 -109.92605209 53.10155781 -110.6875 50.4375 C-110.90591553 49.67493896 -111.12433105 48.91237793 -111.34936523 48.12670898 C-114.01016824 38.12668836 -114.82703047 27.80334441 -110.25390625 18.2109375 C-106.1899256 11.24773079 -101.75763227 7.47588937 -94 5.0625 C-90.05757459 4.54849588 -86.15945298 4.51189207 -82.1875 4.5 C-73.69932176 4.29169331 -66.07587849 3.874995 -58 1.0625 C-57.22076172 0.79566406 -56.44152344 0.52882813 -55.63867188 0.25390625 C-50.44207797 -1.52800159 -45.26328874 -3.35385577 -40.09960938 -5.22900391 C-26.94123497 -9.66919025 -11.60476712 -7.39875598 0 0 Z " fill="#F87B55" transform="translate(159,114.9375)"/>
<path d="M0 0 C0.73089844 0.03867187 1.46179688 0.07734375 2.21484375 0.1171875 C7.99645041 0.44426675 10.0217195 1.59163512 14 6 C18.06568992 8.1296471 21.07183022 7.97152047 25.5 7.4375 C30.37352526 6.87188168 32.72996894 7.43798137 37 10 C38.42872636 10.3691319 39.86741046 10.70128008 41.3125 11 C42.529375 11.33 43.74625 11.66 45 12 C45.495 13.485 45.495 13.485 46 15 C46.886875 15.061875 47.77375 15.12375 48.6875 15.1875 C52 16 52 16 54.125 18.4375 C57.39010338 21.34770084 58.53722694 21.40039645 62.75 21.875 C69.13710427 22.70398139 73.80288775 25.0252755 78 30 C78.73828125 32.73046875 78.73828125 32.73046875 79 35 C74.90183295 36.36605568 72.0528772 34.95552417 68.125 33.625 C66.71172184 33.15648156 65.29767364 32.69027863 63.8828125 32.2265625 C63.25777832 32.01596191 62.63274414 31.80536133 61.98876953 31.58837891 C45.67608273 26.7622587 27.14013547 30.00511935 11 34 C8.89728817 34.5110456 6.79441547 35.02142958 4.69140625 35.53125 C3.60939941 35.79389648 2.52739258 36.05654297 1.41259766 36.32714844 C0.32769043 36.59043945 -0.7572168 36.85373047 -1.875 37.125 C-3.47915771 37.51606934 -3.47915771 37.51606934 -5.11572266 37.91503906 C-24.17546526 42.5116784 -43.18770288 45.12856111 -61 35 C-59.61845295 30.97048777 -58.02535409 28.02535409 -55 25 C-53.20703125 24.3359375 -53.20703125 24.3359375 -51.1875 23.75 C-46.39620418 22.2242801 -44.38548238 19.11591935 -41.640625 15.05859375 C-39.86244012 12.82739511 -38.65916221 11.97161696 -36 11 C-34.7625 10.896875 -33.525 10.79375 -32.25 10.6875 C-27.94457532 10.27058737 -25.31489333 8.47131062 -21.80859375 6.05859375 C-19.46382759 4.68617122 -17.67368836 5 -15 5 C-12.94720004 3.39881603 -10.94348501 1.73223664 -9 0 C-5.40300151 -1.1989995 -3.71453976 -0.68787773 0 0 Z " fill="#F87B55" transform="translate(92,1)"/>
<path d="M0 0 C0.71671875 -0.020625 1.4334375 -0.04125 2.171875 -0.0625 C6.83773394 -0.09680779 9.53372295 0.45682469 13.25 3.25 C14.8046875 5.77661133 14.8046875 5.77661133 16.125 8.83203125 C16.62926514 9.97792725 17.13353027 11.12382324 17.65307617 12.30444336 C18.18575199 13.55697252 18.71805057 14.80966217 19.25 16.0625 C19.81026828 17.35157456 20.37189577 18.64005914 20.93481445 19.92797852 C22.11447386 22.63419722 23.28467517 25.34423218 24.44775391 28.05761719 C26.24986944 32.25875227 28.08194992 36.44640822 29.91796875 40.6328125 C31.0924586 43.31713591 32.26544102 46.00211437 33.4375 48.6875 C33.71730713 49.32829498 33.99711426 49.96908997 34.28540039 50.62930298 C35.08254825 52.45861358 35.87534091 54.28982012 36.66796875 56.12109375 C37.34508911 57.68234985 37.34508911 57.68234985 38.03588867 59.27514648 C39.25 62.25 39.25 62.25 40.27612305 65.55541992 C40.97720602 68.40338676 40.97720602 68.40338676 43.4140625 69.4921875 C44.22617187 69.70101562 45.03828125 69.90984375 45.875 70.125 C46.69226563 70.34929687 47.50953125 70.57359375 48.3515625 70.8046875 C48.97804688 70.95164062 49.60453125 71.09859375 50.25 71.25 C49.375 76.125 49.375 76.125 48.25 77.25 C45.98225109 77.35023409 43.71136837 77.38081341 41.44140625 77.3828125 C40.4185276 77.38424759 40.4185276 77.38424759 39.37498474 77.38571167 C37.92992053 77.38639339 36.48485328 77.38453969 35.03979492 77.38037109 C32.82528807 77.37503084 30.61098481 77.38031205 28.39648438 77.38671875 C26.99479122 77.38605781 25.59309819 77.38477631 24.19140625 77.3828125 C22.90951416 77.38168457 21.62762207 77.38055664 20.30688477 77.37939453 C17.25 77.25 17.25 77.25 15.25 76.25 C15.58 74.6 15.91 72.95 16.25 71.25 C19.22 70.26 19.22 70.26 22.25 69.25 C21.67163139 63.46631389 20.10937886 60.96875773 17.25 55.25 C6.69 55.25 -3.87 55.25 -14.75 55.25 C-20.63787027 65.68102378 -20.63787027 65.68102378 -18.75 70.25 C-16.8846755 71.26754868 -16.8846755 71.26754868 -14.6875 71.9375 C-13.95402344 72.18886719 -13.22054688 72.44023438 -12.46484375 72.69921875 C-11.89894531 72.88097656 -11.33304687 73.06273438 -10.75 73.25 C-11.0625 75.1875 -11.0625 75.1875 -11.75 77.25 C-16.34719492 78.78239831 -20.93526035 78.43442938 -25.75 78.4375 C-26.760625 78.44974609 -27.77125 78.46199219 -28.8125 78.47460938 C-30.2665625 78.47750977 -30.2665625 78.47750977 -31.75 78.48046875 C-32.636875 78.48457764 -33.52375 78.48868652 -34.4375 78.49291992 C-36.75 78.25 -36.75 78.25 -39.75 76.25 C-39.8125 74 -39.8125 74 -38.75 71.25 C-36.87963867 70.52392578 -36.87963867 70.52392578 -34.54296875 69.8203125 C-29.06368331 67.49704779 -27.60685949 64.13915094 -25.35083008 58.81860352 C-24.90505615 57.68221436 -24.45928223 56.5458252 -24 55.375 C-23.24908721 53.57416674 -22.4981251 51.77335295 -21.74494934 49.97346497 C-20.95157649 48.06575435 -20.17210496 46.15276993 -19.39404297 44.23876953 C-17.70465283 40.10783119 -15.92553651 36.01882788 -14.12890625 31.93359375 C-13.82985382 31.25244507 -13.53080139 30.57129639 -13.22268677 29.86950684 C-12.6279832 28.51521096 -12.03312629 27.1609824 -11.43811035 25.80682373 C-10.04137744 22.62557126 -8.65148656 19.44162219 -7.26953125 16.25390625 C-6.80651611 15.18986572 -6.34350098 14.1258252 -5.86645508 13.02954102 C-4.95426397 10.75853823 -4.25336494 8.6376648 -3.75 6.25 C-5.07 5.92 -6.39 5.59 -7.75 5.25 C-8.3125 3.3125 -8.3125 3.3125 -8.75 1.25 C-6.72363933 -0.77636067 -2.77022651 0.01950864 0 0 Z M1.25 15.25 C-0.49202676 19.15804693 -2.21882454 23.07236313 -3.93188477 26.99316406 C-4.51661837 28.32571473 -5.10545808 29.65647152 -5.69848633 30.98535156 C-6.55077513 32.89710751 -7.38803295 34.81485285 -8.22265625 36.734375 C-8.73062744 37.88647461 -9.23859863 39.03857422 -9.76196289 40.22558594 C-11.09200873 43.38875844 -11.09200873 43.38875844 -9.75 47.25 C-1.83 47.25 6.09 47.25 14.25 47.25 C15.61537712 43.15386864 14.39260992 41.5557492 12.72265625 37.61328125 C12.45488876 36.97384079 12.18712128 36.33440033 11.91123962 35.67558289 C11.05389961 33.6339994 10.18341848 31.59832294 9.3125 29.5625 C8.72894358 28.17940495 8.14625044 26.79594532 7.56445312 25.41210938 C6.13629534 22.0204519 4.69629935 18.63396761 3.25 15.25 C2.59 15.25 1.93 15.25 1.25 15.25 Z " fill="#1C1D1A" transform="translate(273.75,2.75)"/>
<path d="M0 0 C2.54348425 -0.13593443 5.07961496 -0.23448907 7.625 -0.3125 C8.33785156 -0.35439453 9.05070312 -0.39628906 9.78515625 -0.43945312 C10.83896484 -0.46362305 10.83896484 -0.46362305 11.9140625 -0.48828125 C12.5529541 -0.51446533 13.1918457 -0.54064941 13.85009766 -0.56762695 C17.97266278 0.52083136 20.91570865 3.24323964 23.11160278 6.80101013 C24.14506623 8.90931647 25.06275916 11.03834682 25.953125 13.2109375 C26.2949884 14.00820755 26.63685181 14.8054776 26.98907471 15.62690735 C27.71547687 17.32670037 28.43452186 19.02965354 29.14672852 20.73544312 C30.2576406 23.39327999 31.39045359 26.04079066 32.52929688 28.68676758 C35.78455967 36.27187006 38.97388321 43.87748911 42.015625 51.55078125 C42.44584961 52.61055176 42.87607422 53.67032227 43.31933594 54.76220703 C44.07988867 56.64660381 44.81451895 58.54177696 45.51660156 60.44873047 C47.45704703 65.23074261 48.99105911 67.4236386 53.78125 69.58203125 C55.17648023 70.08628873 56.57997235 70.57050674 58 71 C57.125 75.875 57.125 75.875 56 77 C53.6243148 77.0883967 51.27791326 77.11530305 48.90234375 77.09765625 C47.83905602 77.09553383 47.83905602 77.09553383 46.75428772 77.09336853 C44.48198288 77.08775443 42.20977525 77.07519963 39.9375 77.0625 C38.40039204 77.05748681 36.86328255 77.05292359 35.32617188 77.04882812 C31.55074358 77.03778042 27.77538829 77.02050641 24 77 C23.67 75.35 23.34 73.7 23 72 C25.31 71.01 27.62 70.02 30 69 C29.19698181 64.02128725 27.65530916 59.96592747 26 55 C15.11 55 4.22 55 -7 55 C-12.19230769 65.29487179 -12.19230769 65.29487179 -12 70 C-9.36 70.99 -6.72 71.98 -4 73 C-4 74.32 -4 75.64 -4 77 C-7.98121015 78.99060508 -12.99773109 78.22875112 -17.375 78.25 C-18.95667969 78.2809375 -18.95667969 78.2809375 -20.5703125 78.3125 C-21.58609375 78.31765625 -22.601875 78.3228125 -23.6484375 78.328125 C-24.57833496 78.3374707 -25.50823242 78.34681641 -26.46630859 78.35644531 C-29.42470043 77.9402522 -30.7922875 76.96111665 -33 75 C-32.5 73.1875 -32.5 73.1875 -31 71 C-29.783125 70.71125 -28.56625 70.4225 -27.3125 70.125 C-24.07696705 69.03995699 -23.12435043 68.19809313 -21.27832031 65.25732422 C-20.73788086 64.1179541 -20.19744141 62.97858398 -19.640625 61.8046875 C-19.34354141 61.1844873 -19.04645782 60.56428711 -18.7403717 59.92529297 C-15.46816089 53.0268819 -12.43675065 46.02025386 -9.4375 39 C-8.89425383 37.73681842 -8.35063428 36.47379735 -7.80664062 35.2109375 C-6.73383387 32.7192573 -5.66591566 30.22556219 -4.60107422 27.73046875 C-3.50379712 25.16346531 -2.38879855 22.60505043 -1.26220703 20.05078125 C-0.98288834 19.41277588 -0.70356964 18.77477051 -0.41578674 18.11743164 C0.35730013 16.35281475 1.1354053 14.59039887 1.91381836 12.828125 C3.17926541 10.03816354 3.17926541 10.03816354 3 7 C1.68 6.34 0.36 5.68 -1 5 C-0.67 3.35 -0.34 1.7 0 0 Z M9 15 C7.25797324 18.90804693 5.53117546 22.82236313 3.81811523 26.74316406 C3.23338163 28.07571473 2.64454192 29.40647152 2.05151367 30.73535156 C1.19922487 32.64710751 0.36196705 34.56485285 -0.47265625 36.484375 C-0.98062744 37.63647461 -1.48859863 38.78857422 -2.01196289 39.97558594 C-3.34200873 43.13875844 -3.34200873 43.13875844 -2 47 C5.92 47 13.84 47 22 47 C23.36537712 42.90386864 22.14260992 41.3057492 20.47265625 37.36328125 C20.20488876 36.72384079 19.93712128 36.08440033 19.66123962 35.42558289 C18.80389961 33.3839994 17.93341848 31.34832294 17.0625 29.3125 C16.47894358 27.92940495 15.89625044 26.54594532 15.31445312 25.16210938 C13.88629534 21.7704519 12.44629935 18.38396761 11 15 C10.34 15 9.68 15 9 15 Z " fill="#1C1D1A" transform="translate(414,96)"/>
<path d="M0 0 C0.33 22.44 0.66 44.88 1 68 C3.31 68 5.62 68 8 68 C8.66 68.33 9.32 68.66 10 69 C9.84765625 70.86328125 9.84765625 70.86328125 9 73 C2.92593325 76.06132964 -4.21242138 77.75317896 -11 78 C-11.99 77.34 -12.98 76.68 -14 76 C-14.6875 72.375 -14.6875 72.375 -15 69 C-15.49628906 69.48210937 -15.99257813 69.96421875 -16.50390625 70.4609375 C-22.6949309 76.21729818 -28.14785179 78.54502452 -36.6640625 78.3125 C-42.31479976 77.55654853 -46.63424601 75.24435363 -50.8125 71.4375 C-56.4973818 63.56157001 -58.02875335 54.49317962 -57 45 C-55.75182459 37.42612011 -51.80228972 31.93391983 -46 27 C-39.45548785 22.96927397 -32.56450398 22.01534022 -25 23 C-21.25582018 24.07073995 -18.24283477 25.83811015 -15 28 C-13.80658248 27.02667739 -13.80658248 27.02667739 -13.88647461 25.23413086 C-13.89171143 24.48526611 -13.89694824 23.73640137 -13.90234375 22.96484375 C-13.90556641 22.15595703 -13.90878906 21.34707031 -13.91210938 20.51367188 C-13.92048828 19.66353516 -13.92886719 18.81339844 -13.9375 17.9375 C-13.94201172 17.08349609 -13.94652344 16.22949219 -13.95117188 15.34960938 C-13.96299627 13.23304337 -13.98093231 11.11651315 -14 9 C-16.97 8.67 -19.94 8.34 -23 8 C-23 6.68 -23 5.36 -23 4 C-20.29592085 3.12975626 -17.58812663 2.2786585 -14.875 1.4375 C-14.11445313 1.19064453 -13.35390625 0.94378906 -12.5703125 0.68945312 C-11.82265625 0.46064453 -11.075 0.23183594 -10.3046875 -0.00390625 C-9.62390137 -0.21861572 -8.94311523 -0.4333252 -8.24169922 -0.65454102 C-6 -1 -6 -1 0 0 Z M-36 32 C-39.55011842 35.38456886 -41.8124575 38.59801333 -42.203125 43.6015625 C-42.32851101 51.68896004 -41.56867737 58.10555367 -37.0625 64.9375 C-33.6889909 68.3110091 -31.94425612 68.90862038 -27.125 69.375 C-22.80515691 69.26237839 -20.33081214 67.7885869 -17 65 C-12.50918698 59.8897645 -12.72295762 54.91050685 -12.78125 48.3671875 C-13.15849374 42.56032854 -14.83306383 38.10946154 -17.625 33.0625 C-23.31588247 28.12041785 -29.66960092 28.1043698 -36 32 Z " fill="#1C1D1A" transform="translate(512,3)"/>
<path d="M0 0 C4.79874333 4.00573066 9.43386757 8.94219876 10.5625 15.25 C10.84983314 20.32621888 10.64104871 24.57326541 8.5625 29.25 C4.97065468 32.66139376 1.22567622 34.54034507 -3.75 34.6875 C-7.4375 34.25 -7.4375 34.25 -10.4375 32.25 C-16.06880909 30.45771695 -21.56233553 30.17795425 -27.4375 30.3125 C-31.99010289 30.41114795 -35.47676941 30.13090189 -39.75 28.5625 C-44.33034039 26.93259304 -47.03325837 27.56585744 -51.4296875 29.48828125 C-53.4375 30.25 -53.4375 30.25 -57.4375 30.25 C-60.10921089 25.07356015 -60.20781911 19.75203897 -58.97265625 14.13671875 C-56.47475927 6.52478417 -51.9459287 1.87497376 -45.0625 -2.0625 C-30.92842045 -9.17696957 -13.36814256 -9.28413696 0 0 Z " fill="#F87B55" transform="translate(137.4375,146.75)"/>
<path d="M0 0 C5.98714434 3.58237001 7.90115854 7.93360245 9.78881836 14.40625 C11.02606603 19.46227345 11.56528817 24.58220613 12.125 29.75 C12.3645391 31.87399827 12.60660825 33.99771318 12.8515625 36.12109375 C12.95291504 37.04720459 13.05426758 37.97331543 13.15869141 38.92749023 C13.44768104 41.45328604 13.44768104 41.45328604 14.5 44.3125 C18.00294871 46.02817661 18.00294871 46.02817661 21.5 47.3125 C21.17 48.9625 20.84 50.6125 20.5 52.3125 C10.93 52.3125 1.36 52.3125 -8.5 52.3125 C-8.83 50.6625 -9.16 49.0125 -9.5 47.3125 C-6.035 45.3325 -6.035 45.3325 -2.5 43.3125 C-2.82141295 35.49884031 -3.38390315 27.81913748 -4.8125 20.125 C-5.03550781 18.91457031 -5.25851562 17.70414063 -5.48828125 16.45703125 C-6.60079502 12.99921819 -7.65338653 11.5241811 -10.5 9.3125 C-14.65392054 8.13686211 -17.02803292 8.17650949 -21.1875 9.375 C-25.36661868 11.81939017 -27.63834079 14.55270839 -29.09326172 19.21264648 C-29.53865104 21.51204238 -29.62950188 23.63086358 -29.6328125 25.97265625 C-29.63410156 26.84857422 -29.63539063 27.72449219 -29.63671875 28.62695312 C-29.63091797 29.98723633 -29.63091797 29.98723633 -29.625 31.375 C-29.62886719 32.28572266 -29.63273437 33.19644531 -29.63671875 34.13476562 C-29.63478516 35.44670898 -29.63478516 35.44670898 -29.6328125 36.78515625 C-29.63168457 37.58187744 -29.63055664 38.37859863 -29.62939453 39.19946289 C-29.57936143 41.50383453 -29.57936143 41.50383453 -28.5 44.3125 C-24.99705129 46.02817661 -24.99705129 46.02817661 -21.5 47.3125 C-21.5 48.6325 -21.5 49.9525 -21.5 51.3125 C-23.32595254 53.13845254 -26.2012322 52.442919 -28.65234375 52.4453125 C-29.90337891 52.44660156 -31.15441406 52.44789063 -32.44335938 52.44921875 C-33.76142578 52.44535156 -35.07949219 52.44148438 -36.4375 52.4375 C-38.40879883 52.44330078 -38.40879883 52.44330078 -40.41992188 52.44921875 C-41.67224609 52.44792969 -42.92457031 52.44664062 -44.21484375 52.4453125 C-45.37105225 52.44418457 -46.52726074 52.44305664 -47.71850586 52.44189453 C-50.5 52.3125 -50.5 52.3125 -52.5 51.3125 C-52.17 49.6625 -51.84 48.0125 -51.5 46.3125 C-49.19 45.6525 -46.88 44.9925 -44.5 44.3125 C-44.5 32.4325 -44.5 20.5525 -44.5 8.3125 C-46.81 8.3125 -49.12 8.3125 -51.5 8.3125 C-52.16 7.9825 -52.82 7.6525 -53.5 7.3125 C-53.23828125 5.41796875 -53.23828125 5.41796875 -52.5 3.3125 C-50.79296875 2.30078125 -50.79296875 2.30078125 -48.6875 1.625 C-47.65689453 1.27888672 -47.65689453 1.27888672 -46.60546875 0.92578125 C-45.91066406 0.72339844 -45.21585937 0.52101563 -44.5 0.3125 C-43.86191406 0.12171875 -43.22382813 -0.0690625 -42.56640625 -0.265625 C-40.084586 -0.77231042 -37.78099933 -0.78330262 -35.25 -0.75 C-34.35796875 -0.74097656 -33.4659375 -0.73195313 -32.546875 -0.72265625 C-31.87140625 -0.71105469 -31.1959375 -0.69945313 -30.5 -0.6875 C-29.84 1.6225 -29.18 3.9325 -28.5 6.3125 C-27.82904297 5.69761719 -27.82904297 5.69761719 -27.14453125 5.0703125 C-26.53996094 4.53148438 -25.93539063 3.99265625 -25.3125 3.4375 C-24.72082031 2.90382813 -24.12914062 2.37015625 -23.51953125 1.8203125 C-16.91633629 -3.10973248 -7.39784022 -3.42826742 0 0 Z " fill="#1C1D1A" transform="translate(347.5,120.6875)"/>
<path d="M0 0 C7.7179883 5.69661041 10.13368221 11.54219795 11.625 20.9375 C11.82232329 22.85318027 12.00889566 24.76998394 12.1875 26.6875 C12.29231689 27.71359375 12.39713379 28.7396875 12.50512695 29.796875 C12.70769915 31.86668341 12.87635739 33.94013257 13.00854492 36.015625 C13.38167376 41.41614345 13.38167376 41.41614345 16.52197266 45.51171875 C18.53734275 46.52406592 20.46114118 47.31093019 22.625 47.9375 C22.625 49.2575 22.625 50.5775 22.625 51.9375 C18.04837784 54.22581108 11.65002708 53.12252705 6.625 53.125 C5.3153125 53.13724609 4.005625 53.14949219 2.65625 53.16210938 C0.78453125 53.16500977 0.78453125 53.16500977 -1.125 53.16796875 C-2.27484375 53.17207764 -3.4246875 53.17618652 -4.609375 53.18041992 C-7.375 52.9375 -7.375 52.9375 -9.375 50.9375 C-9.375 48.9375 -9.375 48.9375 -8.375 46.9375 C-6.375 46.27083333 -4.375 45.60416667 -2.375 44.9375 C-0.38676656 40.11338927 -1.95990772 34.56001586 -2.625 29.5625 C-2.74746094 28.53382813 -2.86992188 27.50515625 -2.99609375 26.4453125 C-3.82332661 20.08954316 -4.66626814 14.64623186 -9.375 9.9375 C-15.28069217 8.65793336 -18.04868629 8.76707517 -23.375 11.9375 C-24.035 11.9375 -24.695 11.9375 -25.375 11.9375 C-27.29330887 16.66932856 -28.4998118 20.34806906 -28.47265625 25.48046875 C-28.46782227 27.09018555 -28.46782227 27.09018555 -28.46289062 28.73242188 C-28.45451172 29.85197266 -28.44613281 30.97152344 -28.4375 32.125 C-28.43298828 33.25615234 -28.42847656 34.38730469 -28.42382812 35.55273438 C-28.41203498 38.34770927 -28.3955765 41.1425782 -28.375 43.9375 C-25.735 45.2575 -23.095 46.5775 -20.375 47.9375 C-20.375 49.2575 -20.375 50.5775 -20.375 51.9375 C-24.8236705 54.16183525 -30.92721887 53.12249601 -35.8125 53.125 C-37.06611328 53.13724609 -38.31972656 53.14949219 -39.61132812 53.16210938 C-41.41053711 53.16500977 -41.41053711 53.16500977 -43.24609375 53.16796875 C-44.34880615 53.17207764 -45.45151855 53.17618652 -46.58764648 53.18041992 C-49.375 52.9375 -49.375 52.9375 -52.375 50.9375 C-50.75289404 46.23339271 -49.52248158 46.51124079 -44.375 43.9375 C-44.375 32.7175 -44.375 21.4975 -44.375 9.9375 C-46.685 9.6075 -48.995 9.2775 -51.375 8.9375 C-52.035 7.9475 -52.695 6.9575 -53.375 5.9375 C-49.74609297 1.6476993 -44.69509496 0.96331618 -39.375 -0.0625 C-36.28036624 -0.31888681 -33.48923141 -0.26341816 -30.375 -0.0625 C-28.40677114 1.90572886 -28.71251619 5.28558709 -28.375 7.9375 C-27.818125 7.174375 -27.26125 6.41125 -26.6875 5.625 C-20.0569878 -2.08073039 -9.37091775 -2.95010374 0 0 Z " fill="#1C1D1A" transform="translate(748.375,120.0625)"/>
<path d="M0 0 C2.17782681 2.17782681 1.26089916 7.25103078 1.31640625 10.28515625 C1.33718735 11.21597519 1.35796844 12.14679413 1.37937927 13.1058197 C1.44497931 16.09130182 1.50380802 19.07687484 1.5625 22.0625 C1.6056753 24.08138976 1.64928925 26.1002702 1.69335938 28.11914062 C1.80067129 33.07933297 1.90190888 38.03961709 2 43 C4.31 43.33 6.62 43.66 9 44 C9.495 45.98 9.495 45.98 10 48 C2.74303469 51.99133092 -3.77194377 53.43305559 -12 53 C-14.04698414 50.95301586 -13.70045693 46.69588759 -14 44 C-15.051875 45.3921875 -15.051875 45.3921875 -16.125 46.8125 C-20.12800915 51.52715522 -24.25278886 53.0721094 -30.3125 53.875 C-37.18279147 54.3236721 -42.33777631 52.96773055 -47.875 48.875 C-53.60518143 41.1224016 -53.51401716 32.26096364 -53.6875 22.9375 C-53.72166016 21.69033203 -53.75582031 20.44316406 -53.79101562 19.15820312 C-53.87288731 16.10555873 -53.94223628 13.05317966 -54 10 C-58.455 9.01 -58.455 9.01 -63 8 C-62.67 6.68 -62.34 5.36 -62 4 C-55.04356758 0.6460058 -47.64752515 -0.63729376 -40 0 C-38.05668219 1.94331781 -38.816127 5.6328219 -38.7890625 8.2890625 C-38.76096907 9.80339577 -38.73230447 11.31771852 -38.703125 12.83203125 C-38.66203671 15.22151111 -38.62515762 17.61080004 -38.59863281 20.00048828 C-38.57082201 22.30542869 -38.52492583 24.60947341 -38.4765625 26.9140625 C-38.47330963 27.61850494 -38.47005676 28.32294739 -38.46670532 29.04873657 C-38.34272043 34.1150833 -37.30342342 37.57303156 -35 42 C-31.37739356 44.48407299 -28.12913422 44.04511114 -23.96484375 43.484375 C-21.01516601 42.75721786 -18.70690256 41.85959021 -16.74536133 39.47436523 C-13.53471626 33.37679038 -13.49547475 27.85165945 -13.6875 21.0625 C-13.69716797 20.00998047 -13.70683594 18.95746094 -13.71679688 17.87304688 C-13.35161189 13.08882805 -13.35161189 13.08882805 -15 9 C-16.34747084 8.76924918 -17.70377565 8.58846937 -19.0625 8.4375 C-20.361875 8.293125 -21.66125 8.14875 -23 8 C-22.71875 6.1015625 -22.71875 6.1015625 -22 4 C-15.56757106 1.01351513 -7.03005009 -2.41657972 0 0 Z " fill="#1C1D1A" transform="translate(440,27)"/>
<path d="M0 0 C3.55104382 0.07747732 4.14560345 0.40451761 7.125 2.75 C10.7045804 7.41430173 10.76966492 11.91515415 10.71875 17.63671875 C8.47556103 33.68541629 -5.09062356 49.2361121 -15.8125 60.4375 C-16.48152344 61.1696875 -17.15054688 61.901875 -17.83984375 62.65625 C-24.02177268 69.21766368 -29.74535777 73.62779493 -39 74.0625 C-42.69359663 73.88324499 -45.49425158 73.57004146 -48.5625 71.4375 C-51.62781078 67.35041896 -51.46939424 65.44631861 -50.8125 60.4375 C-48.8125 58.4375 -48.8125 58.4375 -45.375 58.125 C-41.8125 58.4375 -41.8125 58.4375 -40 59.625 C-38.57538931 61.79940579 -37.67265117 63.98937745 -36.8125 66.4375 C-32.74010702 65.91065196 -30.59651363 64.80700851 -27.5625 62.0625 C-26.53382813 61.15371094 -26.53382813 61.15371094 -25.484375 60.2265625 C-23.58170257 58.43959012 -23.58170257 58.43959012 -22.8125 55.4375 C-23.25353828 53.48280689 -23.25353828 53.48280689 -24.12011719 51.41259766 C-24.43084167 50.60811188 -24.74156616 49.8036261 -25.06170654 48.97476196 C-25.40743713 48.10910614 -25.75316772 47.24345032 -26.109375 46.3515625 C-26.63352997 45.01066055 -26.63352997 45.01066055 -27.16827393 43.64266968 C-27.91046998 41.74961358 -28.65724259 39.85834642 -29.40820312 37.96875 C-30.55364094 35.08480504 -31.68423009 32.19538601 -32.8125 29.3046875 C-33.53558412 27.46580184 -34.25951519 25.62724894 -34.984375 23.7890625 C-35.32200867 22.92745514 -35.65964233 22.06584778 -36.00750732 21.1781311 C-38.93366192 13.17736419 -38.93366192 13.17736419 -45 7.625 C-45.928125 7.233125 -46.85625 6.84125 -47.8125 6.4375 C-47.8125 2.4375 -47.8125 2.4375 -46.8125 1.4375 C-44.59394736 1.34966458 -42.37261504 1.33055391 -40.15234375 1.33984375 C-39.15564415 1.34196617 -39.15564415 1.34196617 -38.1388092 1.34413147 C-36.00916101 1.34974482 -33.87961661 1.36229946 -31.75 1.375 C-30.30924631 1.38001329 -28.86849097 1.38457649 -27.42773438 1.38867188 C-23.88928898 1.39971855 -20.35090461 1.41699208 -16.8125 1.4375 C-16.3175 3.9125 -16.3175 3.9125 -15.8125 6.4375 C-18.71850261 7.69414978 -20.60854584 8.4375 -23.8125 8.4375 C-23.15274765 12.35452592 -21.98941302 15.8183298 -20.52734375 19.5078125 C-20.07939453 20.65121094 -19.63144531 21.79460938 -19.16992188 22.97265625 C-18.2201067 25.37397715 -17.26958104 27.77501715 -16.31835938 30.17578125 C-15.87169922 31.31660156 -15.42503906 32.45742188 -14.96484375 33.6328125 C-14.3459729 35.19539795 -14.3459729 35.19539795 -13.71459961 36.78955078 C-12.8125 39.4375 -12.8125 39.4375 -12.8125 42.4375 C-5.73333524 36.19117815 -0.8971837 27.81001671 0.6875 18.5 C0.0402096 14.53534629 -1.78245748 13.03313485 -4.46875 10.17578125 C-5.8125 8.4375 -5.8125 8.4375 -6.3125 5.125 C-5.50068642 0.76150199 -4.37242813 0.50175405 0 0 Z " fill="#1C1D1B" transform="translate(363.8125,25.5625)"/>
<path d="M0 0 C5.74617587 4.08862514 8.49794738 8.41350875 9.82836914 15.31103516 C9.97910889 16.39690918 10.12984863 17.4827832 10.28515625 18.6015625 C10.45466797 19.79007813 10.62417969 20.97859375 10.79882812 22.203125 C10.96833984 23.43546875 11.13785156 24.6678125 11.3125 25.9375 C11.6551613 28.38835628 12.00010529 30.83889483 12.34765625 33.2890625 C12.57207397 34.91448975 12.57207397 34.91448975 12.80102539 36.57275391 C13.18890925 39.39363881 13.18890925 39.39363881 14.25 42.3125 C15.36375 42.065 15.36375 42.065 16.5 41.8125 C19.25 41.3125 19.25 41.3125 23.25 41.3125 C23.5625 43.5 23.5625 43.5 23.25 46.3125 C20.68879574 49.35825642 19.04480342 51.04756553 15.25 52.3125 C10.22957107 52.68438362 7.25266576 52.44972452 3.25 49.3125 C0.9375 46.625 0.9375 46.625 -0.75 44.3125 C-1.41 45.075625 -2.07 45.83875 -2.75 46.625 C-8.79232783 52.48422698 -15.85159808 52.79404827 -23.875 52.73413086 C-29.61075935 52.52957165 -33.15627316 51.73527686 -37.75 48.3125 C-41.11572068 43.68463406 -41.27581801 39.83358906 -40.75 34.3125 C-38.64382511 29.28108221 -34.76183876 25.84138547 -29.95703125 23.40234375 C-22.30488156 20.45693217 -13.84494863 20.10247777 -5.75 19.3125 C-6.10173621 13.40239656 -6.10173621 13.40239656 -7.875 7.8125 C-10.79215814 5.47877349 -13.05116249 5.37414729 -16.75 5.3125 C-20.57843335 6.06039804 -20.57843335 6.06039804 -23.75 8.3125 C-24.84687806 10.34068962 -25.52869423 12.25316309 -26.14453125 14.47265625 C-26.75 16.3125 -26.75 16.3125 -28.75 18.3125 C-32.25 18.5625 -32.25 18.5625 -35.75 18.3125 C-37.75 16.3125 -37.75 16.3125 -38.1875 13.0625 C-37.66024326 8.54315651 -36.17229061 6.15209844 -32.75 3.3125 C-23.69938159 -2.31501323 -9.96423505 -4.68017101 0 0 Z M-24.75 30.3125 C-27.18595272 33.96642909 -26.8757742 35.30385953 -26.23046875 39.44140625 C-25.61344926 41.84427075 -24.82700225 42.95446007 -22.75 44.3125 C-18.36530965 45.77406345 -14.08521532 46.23023053 -9.7421875 44.5234375 C-6.56644187 42.78275684 -4.77327733 41.347416 -2.75 38.3125 C-1.48810845 33.5804067 -2.10432996 30.85075162 -3.75 26.3125 C-6.12625177 26.20366404 -8.49743976 26.12483304 -10.875 26.0625 C-11.54015625 26.02898438 -12.2053125 25.99546875 -12.890625 25.9609375 C-18.03175552 25.86013102 -20.81679432 27.06789709 -24.75 30.3125 Z " fill="#1C1D1A" transform="translate(567.75,27.6875)"/>
<path d="M0 0 C6.48360853 4.42462474 10.50776553 9.52329658 13 17 C13.86047872 25.76459039 13.23325008 32.75003404 8 40 C2.06885766 46.97781452 -5.40498054 50.44491351 -14.46484375 51.34375 C-25.77451276 51.6384645 -34.53107399 49.70259628 -43 42 C-48.11999708 36.74162462 -50.14047138 30.87659521 -50.4375 23.625 C-50.18662829 16.07794278 -47.9414383 9.73104884 -42.8125 4.125 C-31.58551955 -6.13413731 -13.06128798 -7.11672743 0 0 Z M-32.8125 9.0625 C-35.84390905 14.00848318 -35.52299725 19.39748154 -35 25 C-33.1786893 32.22862175 -30.58364884 37.85073283 -24.9375 42.8125 C-20.29537438 44.68910397 -15.92091876 44.87999263 -11 44 C-6.75649119 41.67096941 -3.74732207 38.5349103 -2 34 C-0.85158535 24.1449999 -2.33991061 15.41466593 -8.5 7.5 C-12.10379653 3.89620347 -14.78466621 2.70428869 -19.875 2.625 C-25.67838602 2.74465744 -28.98020317 4.70161051 -32.8125 9.0625 Z " fill="#1C1D1A" transform="translate(679,123)"/>
<path d="M0 0 C4.83098193 3.07908738 7.34673601 6.45670311 9 12 C8.87874846 15.15254015 8.70359052 17.0859456 6.76757812 19.60107422 C4.48079536 21.41091749 2.71708453 21.6782538 -0.15625 22.1328125 C-1.17976563 22.29910156 -2.20328125 22.46539062 -3.2578125 22.63671875 C-4.32773437 22.79785156 -5.39765625 22.95898438 -6.5 23.125 C-8.05847656 23.37830078 -8.05847656 23.37830078 -9.6484375 23.63671875 C-16.41440826 24.70813806 -23.1710361 25.46934814 -30 26 C-28.03364225 32.28034191 -26.40395729 37.03816986 -20.34375 40.2265625 C-14.70943266 42.08588722 -8.65246958 41.91763513 -3.125 39.75 C0.04094191 38.09464375 0.04094191 38.09464375 2.6875 35.8125 C5 34 5 34 9 34 C9.33 34.99 9.66 35.98 10 37 C6.71735091 43.22042844 1.8065573 47.47958059 -4.69921875 50.078125 C-12.94820356 52.38198348 -23.49032869 52.40566569 -31.109375 48.26171875 C-37.43545277 44.03997677 -42.17784246 39.66346263 -44.578125 32.203125 C-46.18602112 23.80633415 -45.91552976 15.56016198 -41.53515625 8.1171875 C-32.18065181 -4.78393567 -13.57618265 -8.39254927 0 0 Z M-28.875 7.6875 C-31.60487682 11.94289622 -31.42656834 14.05180731 -31 19 C-25.12123504 19.16032995 -19.76611905 18.6092534 -14 17.5 C-13.22527344 17.35691406 -12.45054687 17.21382812 -11.65234375 17.06640625 C-9.76704421 16.71727671 -7.88334061 16.35954684 -6 16 C-5.06548175 12.37259365 -4.81362199 11.38828753 -6.5 7.875 C-9.44028233 4.49367532 -11.76161395 3.36233837 -16 2 C-21.75493068 2 -24.7019875 3.78664049 -28.875 7.6875 Z " fill="#1C1D1A" transform="translate(282,123)"/>
<path d="M0 0 C3.87196642 2.99071242 5.98198921 5.39531215 6.7421875 10.30859375 C6.94654987 13.02708859 6.88364034 14.10938927 5.26171875 16.32421875 C3.5546875 17.55859375 3.5546875 17.55859375 0.0546875 17.55859375 C-3.4453125 16.55859375 -3.4453125 16.55859375 -5.1953125 14.37109375 C-5.8140625 12.97890625 -5.8140625 12.97890625 -6.4453125 11.55859375 C-8.56742328 6.83767314 -8.56742328 6.83767314 -12.4453125 3.55859375 C-16.48398011 2.89822641 -20.62800603 2.66289484 -24.36328125 4.50390625 C-27.65943404 7.09199659 -29.18925447 9.64833166 -30.4453125 13.55859375 C-31.21416713 20.79780939 -30.75430813 27.05470579 -27.4453125 33.55859375 C-24.12337032 37.47678196 -21.14831279 40.14839402 -16 40.9296875 C-8.17984467 41.12348144 -1.50160913 39.35692415 4.3359375 33.890625 C4.738125 33.45105469 5.1403125 33.01148438 5.5546875 32.55859375 C6.5446875 32.88859375 7.5346875 33.21859375 8.5546875 33.55859375 C8.18207763 38.77513198 6.47017515 42.15173562 2.5546875 45.55859375 C-6.10418626 50.97038985 -15.24022826 51.82246902 -25.2734375 50.0625 C-32.56747924 48.08236904 -38.02615923 45.04337497 -42.2578125 38.68359375 C-46.33220244 31.51320356 -47.52852151 24.33899092 -46.015625 16.265625 C-44.05143439 9.22121299 -40.15171541 3.88882834 -33.94140625 -0.015625 C-23.02901787 -5.69136799 -10.88204263 -6.41449478 0 0 Z " fill="#1C1D1A" transform="translate(518.4453125,123.44140625)"/>
<path d="M0 0 C3.27601788 2.71669775 5.24448645 4.83265229 5.84375 9.15234375 C5.9375 11.3125 5.9375 11.3125 5.5625 15.125 C2.5625 17.125 2.5625 17.125 -0.875 17.3125 C-4.4375 16.125 -4.4375 16.125 -5.67578125 14.15234375 C-6.34092967 12.57293726 -6.95630727 10.97147329 -7.515625 9.3515625 C-8.81425863 6.21503213 -10.42340561 4.6320472 -13.4375 3.125 C-17.57888723 2.70191132 -21.31148837 2.72464031 -25.25 4.125 C-29.05624501 7.60499544 -31.05848424 11.46767841 -31.7890625 16.58984375 C-32.03301208 23.7863564 -30.45863082 29.75868088 -26.0625 35.5 C-22.09998742 39.46251258 -19.16382688 40.22914612 -13.6875 40.5 C-7.10171781 40.36238664 -1.81127098 38.20928671 3.125 33.875 C3.599375 33.2975 4.07375 32.72 4.5625 32.125 C5.8825 32.785 7.2025 33.445 8.5625 34.125 C7.33042835 40.43936723 3.67339202 43.62342 -1.4375 47.125 C-9.04842823 51.20330871 -18.14149668 51.28501116 -26.43359375 49.46875 C-34.36234778 46.9174727 -40.7606012 42.62652928 -44.875 35.25 C-48.1544902 27.67073377 -48.07893601 19.90256159 -45.4375 12.125 C-41.79622528 4.49800566 -36.25821463 -0.56678558 -28.3984375 -3.68359375 C-18.51531706 -6.53827993 -8.93780324 -4.8751654 0 0 Z " fill="#1C1D1A" transform="translate(580.4375,123.875)"/>
<path d="M0 0 C2.38443668 2.38443668 2.26183505 2.92459782 2.31884766 6.17431641 C2.33871735 7.03505768 2.35858704 7.89579895 2.37905884 8.78262329 C2.39061005 9.71287323 2.40216125 10.64312317 2.4140625 11.6015625 C2.43342865 12.55316254 2.4527948 13.50476257 2.4727478 14.48519897 C2.53264132 17.53170747 2.57896795 20.57825354 2.625 23.625 C2.66317079 25.6875167 2.70222198 27.7500173 2.7421875 29.8125 C2.83835086 34.87486966 2.92234563 39.93731395 3 45 C5.64 46.32 8.28 47.64 11 49 C10.67 50.65 10.34 52.3 10 54 C5.90658501 54.02469575 1.81319879 54.04285793 -2.28027344 54.05493164 C-3.67318477 54.0599643 -5.0660908 54.06679098 -6.45898438 54.07543945 C-8.45961246 54.08755152 -10.46027888 54.09270412 -12.4609375 54.09765625 C-13.66540527 54.10289307 -14.86987305 54.10812988 -16.11083984 54.11352539 C-19 54 -19 54 -21 53 C-20.67 51.35 -20.34 49.7 -20 48 C-19.030625 47.731875 -18.06125 47.46375 -17.0625 47.1875 C-15.5465625 46.5996875 -15.5465625 46.5996875 -14 46 C-12.82940931 42.48822793 -12.87047692 39.70068757 -12.8671875 35.99609375 C-12.86623077 35.31700455 -12.86527405 34.63791534 -12.86428833 33.93824768 C-12.86360876 32.50513618 -12.86544747 31.07202158 -12.86962891 29.63891602 C-12.87498865 27.44215006 -12.86967218 25.24558779 -12.86328125 23.04882812 C-12.86394191 21.65624955 -12.86522282 20.2636711 -12.8671875 18.87109375 C-12.86831543 17.60193115 -12.86944336 16.33276855 -12.87060547 15.02514648 C-12.79023871 12.079037 -12.79023871 12.079037 -14 10 C-15.89533342 9.53476937 -15.89533342 9.53476937 -18.0625 9.375 C-19.361875 9.25125 -20.66125 9.1275 -22 9 C-21.9375 7.1875 -21.9375 7.1875 -21 5 C-14.93841691 1.71664249 -6.95745278 -0.84332761 0 0 Z " fill="#1C1D1A" transform="translate(615,119)"/>
<path d="M0 0 C0.91007813 0.00902344 1.82015625 0.01804687 2.7578125 0.02734375 C3.80582031 0.04474609 3.80582031 0.04474609 4.875 0.0625 C5.205 1.0525 5.535 2.0425 5.875 3.0625 C3.04659619 7.57763421 -0.69147897 10.02774388 -5.125 12.75 C-5.74117187 13.13994141 -6.35734375 13.52988281 -6.9921875 13.93164062 C-15.1664797 19.0625 -15.1664797 19.0625 -19.125 19.0625 C-18.60115807 15.03939394 -17.58202701 13.00401049 -14.8125 10.0625 C-12.7145718 7.78831144 -10.72965619 5.56030651 -8.8125 3.125 C-6.07777417 -0.21744268 -4.14508936 -0.05314217 0 0 Z " fill="#1C1D1B" transform="translate(673.125,96.9375)"/>
<path d="M0 0 C2.0625 1.8125 2.0625 1.8125 3.125 4.1875 C3.0625 6.8125 3.0625 6.8125 1.8125 9.625 C-1.90854589 12.58492287 -4.64590927 12.33218781 -9.28125 12.28125 C-12.32766864 11.74364671 -13.75542765 10.98953292 -15.9375 8.8125 C-16.5 5.3125 -16.5 5.3125 -15.9375 1.8125 C-11.48786461 -2.49808429 -5.43630658 -2.19765585 0 0 Z " fill="#1C1D1A" transform="translate(614.9375,100.1875)"/>
</svg>
