<svg width="195" height="102" viewBox="0 0 195 102" fill="none" xmlns="http://www.w3.org/2000/svg">
<line x1="22" y1="76" x2="22" stroke="#F87C56"/>
<rect x="102.5" y="76" width="12.6667" height="14" transform="rotate(-90 102.5 76)" fill="#878280"/>
<rect x="102.852" y="75.6481" width="11.963" height="13.2963" transform="rotate(-90 102.852 75.6481)" stroke="#372E2C" stroke-opacity="0.05" stroke-width="0.703704"/>
<rect x="53.5" y="76" width="12.6667" height="49" transform="rotate(-90 53.5 76)" fill="#5F5856"/>
<rect x="53.8519" y="75.6481" width="11.963" height="48.2963" transform="rotate(-90 53.8519 75.6481)" stroke="#372E2C" stroke-opacity="0.05" stroke-width="0.703704"/>
<rect x="102.5" y="54.8889" width="12.6667" height="49" transform="rotate(-90 102.5 54.8889)" fill="#878280"/>
<rect x="102.852" y="54.5371" width="11.963" height="48.2963" transform="rotate(-90 102.852 54.5371)" stroke="#372E2C" stroke-opacity="0.05" stroke-width="0.703704"/>
<rect x="53.5" y="54.8889" width="12.6667" height="49" transform="rotate(-90 53.5 54.8889)" fill="#5F5856"/>
<rect x="53.8519" y="54.5371" width="11.963" height="48.2963" transform="rotate(-90 53.8519 54.5371)" stroke="#372E2C" stroke-opacity="0.05" stroke-width="0.703704"/>
<rect x="102.5" y="33.7778" width="12.6667" height="49" transform="rotate(-90 102.5 33.7778)" fill="#878280"/>
<rect x="102.852" y="33.426" width="11.963" height="48.2963" transform="rotate(-90 102.852 33.426)" stroke="#372E2C" stroke-opacity="0.05" stroke-width="0.703704"/>
<rect x="32.5" y="33.7778" width="12.6667" height="70" transform="rotate(-90 32.5 33.7778)" fill="#5F5856"/>
<rect x="32.8519" y="33.426" width="11.963" height="69.2963" transform="rotate(-90 32.8519 33.426)" stroke="#372E2C" stroke-opacity="0.05" stroke-width="0.703704"/>
<rect x="53.5" y="12.6667" width="12.6667" height="49" transform="rotate(-90 53.5 12.6667)" fill="#5F5856"/>
<rect x="53.8519" y="12.3149" width="11.963" height="48.2963" transform="rotate(-90 53.8519 12.3149)" stroke="#372E2C" stroke-opacity="0.05" stroke-width="0.703704"/>
<rect x="102.5" y="12.6667" width="12.6667" height="70" transform="rotate(-90 102.5 12.6667)" fill="#878280"/>
<rect x="102.852" y="12.3149" width="11.963" height="69.2963" transform="rotate(-90 102.852 12.3149)" stroke="#372E2C" stroke-opacity="0.05" stroke-width="0.703704"/>
</svg>
