<svg width="195" height="120" viewBox="0 -10 195 135" fill="none" xmlns="http://www.w3.org/2000/svg">
<rect x="20" y="0.5" width="155" height="116" rx="3.5" stroke="#F87C56"/>
<rect x="27.5" y="20" width="12" height="140" rx="4" transform="rotate(-90 27.5 20)" fill="#F87C56"/>
<rect x="27.5" y="39" width="12" height="140" transform="rotate(-90 27.5 39)" fill="#5F5856"/>
<rect x="27.8519" y="38.6481" width="11.2963" height="139.296" transform="rotate(-90 27.8519 38.6481)" stroke="#372E2C" stroke-opacity="0.05" stroke-width="0.703704"/>
<rect x="27.5" y="53" width="12" height="140" transform="rotate(-90 27.5 53)" fill="#878280"/>
<rect x="27.8519" y="52.6481" width="11.2963" height="139.296" transform="rotate(-90 27.8519 52.6481)" stroke="#372E2C" stroke-opacity="0.05" stroke-width="0.703704"/>
<rect x="27.5" y="67" width="12" height="140" transform="rotate(-90 27.5 67)" fill="#5F5856"/>
<rect x="27.8519" y="66.6481" width="11.2963" height="139.296" transform="rotate(-90 27.8519 66.6481)" stroke="#372E2C" stroke-opacity="0.05" stroke-width="0.703704"/>
<rect x="27.5" y="81" width="12" height="140" transform="rotate(-90 27.5 81)" fill="#878280"/>
<rect x="27.8519" y="80.6481" width="11.2963" height="139.296" transform="rotate(-90 27.8519 80.6481)" stroke="#372E2C" stroke-opacity="0.05" stroke-width="0.703704"/>
<rect x="27.5" y="95" width="12" height="140" transform="rotate(-90 27.5 95)" fill="#5F5856"/>
<rect x="27.8519" y="94.6481" width="11.2963" height="139.296" transform="rotate(-90 27.8519 94.6481)" stroke="#372E2C" stroke-opacity="0.05" stroke-width="0.703704"/>
<rect x="27.5" y="109" width="12" height="140" transform="rotate(-90 27.5 109)" fill="#878280"/>
<rect x="27.8519" y="108.648" width="11.2963" height="139.296" transform="rotate(-90 27.8519 108.648)" stroke="#372E2C" stroke-opacity="0.05" stroke-width="0.703704"/>
</svg>
