<svg width="196" height="181" viewBox="0 0 196 181" fill="none" xmlns="http://www.w3.org/2000/svg">
<circle cx="98" cy="85" r="32" fill="#F87C56"/>
<g filter="url(#filter0_d_2069_33334)">
<mask id="path-2-inside-1_2069_33334" fill="white">
<path d="M159.366 118.396C153.485 129.257 144.841 138.363 134.311 144.79C123.782 151.217 111.744 154.734 99.4193 154.986C87.0947 155.237 74.9234 152.213 64.1424 146.221C53.3613 140.229 44.3548 131.482 38.038 120.87C31.7213 110.258 28.3195 98.1584 28.1784 85.8013C28.0373 73.4442 31.1619 61.2699 37.2346 50.5156C43.3074 39.7613 52.1118 30.8104 62.7532 24.5724C73.3946 18.3345 85.4936 15.0319 97.8207 15.0002L97.9995 85L159.366 118.396Z"/>
</mask>
<path d="M159.366 118.396C153.485 129.257 144.841 138.363 134.311 144.79C123.782 151.217 111.744 154.734 99.4193 154.986C87.0947 155.237 74.9234 152.213 64.1424 146.221C53.3613 140.229 44.3548 131.482 38.038 120.87C31.7213 110.258 28.3195 98.1584 28.1784 85.8013C28.0373 73.4442 31.1619 61.2699 37.2346 50.5156C43.3074 39.7613 52.1118 30.8104 62.7532 24.5724C73.3946 18.3345 85.4936 15.0319 97.8207 15.0002L97.9995 85L159.366 118.396Z" fill="white"/>
<path d="M159.366 118.396C153.485 129.257 144.841 138.363 134.311 144.79C123.782 151.217 111.744 154.734 99.4193 154.986C87.0947 155.237 74.9234 152.213 64.1424 146.221C53.3613 140.229 44.3548 131.482 38.038 120.87C31.7213 110.258 28.3195 98.1584 28.1784 85.8013C28.0373 73.4442 31.1619 61.2699 37.2346 50.5156C43.3074 39.7613 52.1118 30.8104 62.7532 24.5724C73.3946 18.3345 85.4936 15.0319 97.8207 15.0002L97.9995 85L159.366 118.396Z" stroke="#878280" stroke-width="6" mask="url(#path-2-inside-1_2069_33334)"/>
</g>
<defs>
<filter id="filter0_d_2069_33334" x="13.6459" y="0.47235" width="160.247" height="169.056" filterUnits="userSpaceOnUse" color-interpolation-filters="sRGB">
<feFlood flood-opacity="0" result="BackgroundImageFix"/>
<feColorMatrix in="SourceAlpha" type="matrix" values="0 0 0 0 0 0 0 0 0 0 0 0 0 0 0 0 0 0 127 0" result="hardAlpha"/>
<feOffset/>
<feGaussianBlur stdDeviation="7.26395"/>
<feComposite in2="hardAlpha" operator="out"/>
<feColorMatrix type="matrix" values="0 0 0 0 0.215686 0 0 0 0 0.180392 0 0 0 0 0.172549 0 0 0 0.1 0"/>
<feBlend mode="normal" in2="BackgroundImageFix" result="effect1_dropShadow_2069_33334"/>
<feBlend mode="normal" in="SourceGraphic" in2="effect1_dropShadow_2069_33334" result="shape"/>
</filter>
</defs>
</svg>
