<svg width="16" height="16" viewBox="0 0 16 16" fill="none" xmlns="http://www.w3.org/2000/svg">
<g clip-path="url(#clip0_2141_39268)">
<path d="M5.66699 2.66699H4.00033C3.26395 2.66699 2.66699 3.26395 2.66699 4.00033V13.3337C2.66699 14.0701 3.26395 14.667 4.00033 14.667H8.00033" stroke="#FCAC79" stroke-width="1.5" stroke-linecap="round"/>
<path d="M10.333 2.66699H11.9997C12.7361 2.66699 13.333 3.26395 13.333 4.00033V10.0003" stroke="#FCAC79" stroke-width="1.5" stroke-linecap="round"/>
<path d="M5.33301 4.26699V3.00033C5.33301 2.81623 5.48225 2.66699 5.66634 2.66699C5.85043 2.66699 6.00249 2.51769 6.03402 2.33631C6.13279 1.76813 6.51567 0.666992 7.99967 0.666992C9.48367 0.666992 9.86654 1.76813 9.96534 2.33631C9.99687 2.51769 10.1489 2.66699 10.333 2.66699C10.5171 2.66699 10.6663 2.81623 10.6663 3.00033V4.26699C10.6663 4.48791 10.4873 4.66699 10.2663 4.66699H5.73301C5.51209 4.66699 5.33301 4.48791 5.33301 4.26699Z" stroke="#FCAC79" stroke-width="1.5" stroke-linecap="round"/>
<path d="M10.333 13.667L11.6663 15.0003L14.9997 11.667" stroke="#FCAC79" stroke-width="1.5" stroke-linecap="round" stroke-linejoin="round"/>
</g>
<defs>
<clipPath id="clip0_2141_39268">
<rect width="16" height="16" fill="white"/>
</clipPath>
</defs>
</svg>
