<svg width="512" height="512" viewBox="0 0 512 512" fill="none" xmlns="http://www.w3.org/2000/svg">
<g clip-path="url(#clip0_1074_22245)">
<path d="M0 0H512V512H0V0Z" fill="white"/>
<path d="M236.897 57.1075L242.916 57.0358C265.573 57.5693 287.725 63.4494 307.722 74.138C317.545 79.3886 326.833 85.813 334.513 93.926C340.232 99.967 345.005 107.128 346.852 115.327C347.737 119.252 347.389 123.274 347.159 127.248L346.383 139.975L344.083 176.537L342.676 199.18C344.68 200.099 346.282 201.082 347.832 202.666C351.985 206.909 352.812 213.096 352.779 218.754C352.734 226.689 350.826 234.786 347.524 242C345.998 245.334 344.273 248.415 341.625 250.992C339.029 253.518 335.965 254.84 332.359 254.784L330.695 262.949C328.771 270.95 325.966 278.692 321.833 285.831C319.901 289.169 317.766 292.575 315.432 295.646L308.894 303.592C308.348 304.248 307.186 305.304 306.897 306.021C306.778 306.314 306.871 307.148 306.872 307.508L307.011 321.417C307.03 322.499 306.795 324.511 307.095 325.507C307.18 325.791 309.206 326.919 309.567 327.143L315.263 330.705L331.828 340.807C334.164 342.211 336.654 344.045 339.15 345.107C341.403 346.065 343.908 346.667 346.236 347.462L363.309 353.351L413.311 370.997L428.684 376.3C431.935 377.425 435.351 378.469 438.459 379.941C444.414 382.76 450.173 386.568 454.85 391.209C463.177 399.472 468.334 410.046 469.778 421.679C470.082 424.129 470.048 426.659 470.057 429.125L470.054 493.442L470.027 514.848C470.02 518.44 470.191 522.152 469.965 525.731C469.911 526.575 469.82 527.455 469.174 528.057C468.567 528.622 467.947 528.876 467.125 528.931C464.714 529.092 462.226 528.957 459.809 528.953L446.212 528.934L404.084 528.914L268.375 528.932L106.823 528.888L62.5919 528.917L50.2999 528.935C48.1771 528.936 45.8267 529.14 43.74 528.751C43.234 528.657 42.5202 528.048 42.284 527.6C42.0341 527.127 41.9878 526.526 41.974 526L41.9449 507.708L41.8132 470.898L41.7734 441.365L41.8043 425.269C41.9155 422.323 42.3778 419.251 43.0275 416.375C45.8744 403.772 53.3069 392.411 63.8154 384.867C72.7439 378.458 82.7479 375.944 92.9349 372.406L148.711 353.665L167.573 347.366C168.841 346.939 170.446 346.857 171.597 346.366C172.834 345.84 174.082 344.905 175.222 344.18L182.908 339.094L203.338 325.724L203.29 310.552C203.288 309.857 203.584 308.099 203.395 307.554C203.284 307.234 201.733 306.022 201.36 305.667C199.932 304.309 198.642 302.837 197.369 301.334C194.27 297.672 191.134 293.902 188.544 289.855C181.821 279.351 177.815 267.532 175.795 255.276C172.389 255.227 169.472 254.151 166.687 252.207C158.484 246.481 156.253 233.844 154.63 224.606C153.615 218.827 153.339 212.94 155.522 207.375C156.117 205.858 157.318 204.352 157.792 202.876C157.951 202.381 157.576 200.687 157.496 200.087L156.439 192L152.928 164.875L150.753 147.116C150.106 141.085 149.551 134.997 150.135 128.935C150.897 121.042 153.824 111.973 158.406 105.478C165.144 95.9295 175.26 89.0445 186.865 87.0765C188.27 82.4587 190.857 78.1286 194.057 74.5214C204.774 62.441 221.324 57.9284 236.897 57.1075Z" fill="#372E2C"/>
<path d="M202.851 332.125H203.405L203.476 342.297C203.491 343.8 203.308 345.636 203.69 347.097C203.884 347.839 204.381 348.344 204.995 348.764C209.292 351.707 214.416 353.986 218.97 356.543L251.021 374.688C250.036 376.283 248.415 377.822 247.217 379.303L234.234 394.832L225.278 405.492L209.448 386.217C208.535 385.1 206.228 382.984 205.794 381.712L196.623 336.688C198.446 334.954 200.786 333.569 202.851 332.125Z" fill="#9C9C9C"/>
<path d="M306.953 331.804L315.2 337.007L309.401 366.467L307.688 375.718C307.558 376.386 307.471 377.809 307.163 378.375C306.759 379.116 305.875 379.938 305.314 380.593L301.538 384.977L283.13 405.817L276.303 397.118L258.855 374.878L290.819 356.879L300.892 351.122C302.542 350.167 304.731 349.165 306.091 347.834C306.436 347.497 306.647 347.162 306.787 346.698C307.142 345.52 306.898 343.626 306.904 342.361L306.953 331.804Z" fill="#9C9C9C"/>
<path d="M301.908 310.541C302.353 313.33 301.946 316.756 301.966 319.637L301.92 344.881L255.294 371.11C254.061 370.749 252.747 369.821 251.615 369.182L244.616 365.192L213.355 347.652L208.443 345.052L208.44 312.399C214.818 317.766 221.34 322.595 228.477 326.908C231.263 328.592 234.109 330.665 237.432 330.985C239.757 331.208 242.201 331.062 244.542 331.053L256.259 331.039L266.96 331.017C268.813 331.01 270.871 331.183 272.68 330.783C276.072 330.033 279.051 327.783 281.9 325.891C288.992 321.181 295.426 316.04 301.908 310.541Z" fill="white"/>
<path d="M319.781 339.296L337.854 350.474C339.829 355.102 341.191 360.117 342.663 364.928C345.802 375.181 348.666 385.762 352.483 395.766C352.561 395.968 352.775 396.164 352.716 396.372C352.602 396.771 351.316 397.897 350.977 398.228L343.71 404.842C342.441 405.94 340.157 407.478 339.292 408.875C339.178 409.06 339.086 409.525 339.076 409.75C339.05 410.355 339.197 411.098 339.545 411.601C340.762 413.362 342.67 414.957 344.125 416.549L354.148 427.645L318.755 509.428L312.545 524.09L284.857 524.042L319.781 339.296Z" fill="white"/>
<path d="M191.513 339.375L191.98 339.422C193.232 342.338 193.474 346.32 194.104 349.453L199.768 378.296L227.253 524.093L199.593 524.168C198.867 522.935 198.476 521.405 197.89 520.079L193.072 509.322L157.393 427.667L173.434 410.444C173.819 409.94 173.963 409.375 173.838 408.742C173.507 407.068 161.256 398.878 159.107 397.207L172.243 356.018L173.45 352.178C173.498 352.02 173.685 351.164 173.789 351.051C174.654 350.101 176.814 349.131 177.979 348.364L191.513 339.375Z" fill="white"/>
<path d="M254.84 378.475C257.745 381.429 260.303 385.139 262.877 388.394L275.908 404.723C277.757 407.053 279.484 409.831 281.574 411.926C282.052 412.406 282.498 412.646 283.187 412.651C283.774 412.415 284.179 412.192 284.647 411.757C286.928 409.638 288.905 406.91 290.956 404.556L305.162 388.141L279.908 524.031C278.574 524.479 276.337 524.166 274.859 524.158L262.375 524.09L232.345 524.095C230.69 518.521 230.121 512.231 229.029 506.5L221.36 465.773L212.663 418.505L207.544 391.663L218.376 404.887C220.08 407 221.657 409.526 223.568 411.436C223.955 411.822 224.37 411.976 224.875 412.153C225.582 412.062 226.141 411.983 226.698 411.507C229.497 409.115 231.913 405.498 234.282 402.65L246.371 388.204C249.138 384.914 251.828 381.547 254.84 378.475Z" fill="white"/>
<path d="M236.981 62.1064L249.102 62.1759C277.629 64.0256 313.203 77.1033 332.411 99.12C336.536 103.849 340.462 109.718 341.753 115.947C342.749 120.751 342.198 125.629 341.886 130.472L341.183 142.886L337.744 197.803C336.734 197.999 335.85 198.092 334.954 198.625C334.031 199.95 333.792 202.015 333.447 203.578L331.111 215.923L328.875 215.937C328.748 215.833 328.576 215.768 328.496 215.625C328.316 215.307 328.317 205.954 328.082 204.398C327.246 198.872 324.64 192.685 322.304 187.637L320.57 184.227C320.384 183.881 319.853 183.146 319.786 182.781C319.494 181.194 319.895 178.714 319.914 177.023L319.934 159.714C319.928 156.571 320.224 153.032 319.671 149.946C319.366 148.248 318.643 146.544 317.657 145.128C315.83 142.502 312.905 140.502 309.764 139.858C305.894 139.064 301.437 139.871 297.52 140.118L286.572 140.541C276.068 140.791 265.602 139.925 255.254 138.156C243.675 135.6 232.476 132.457 222.194 126.354C219.054 124.49 216.276 122.009 213.158 120.196C209.518 121.24 205.697 124.246 202.447 126.202L192.906 131.764C190.115 133.445 187.584 135.387 186.375 138.539C185.064 141.956 185.68 146.924 185.68 150.594L185.651 173.028C185.639 176.147 185.931 179.56 185.595 182.633C185.5 183.498 184.828 184.654 184.462 185.45L182.219 190.627C180.569 194.834 179.107 199.031 178.017 203.421C176.943 201.112 175.453 199.404 173.125 198.334C169.21 196.537 166.236 197.307 162.421 198.782L155.095 139.625C154.751 134.372 154.87 129.161 155.938 123.989C158.565 111.261 166.48 100.72 178.221 95.0975C180.093 94.201 182.018 93.399 184.021 92.8465C185.737 92.373 188.786 92.4255 190.196 91.5285C191.173 90.9065 191.571 88.6725 191.915 87.6255C192.303 86.4481 192.82 85.3068 193.382 84.2028C194.529 81.9521 196.03 79.8603 197.711 77.9797C207.525 67.0001 222.745 62.9253 236.981 62.1064Z" fill="#372E2C"/>
<path d="M343.717 352.162C362.147 357.506 380.217 364.702 398.346 371.012L422.976 379.603C427.383 381.148 432.032 382.465 436.25 384.47C442.101 387.252 447.514 390.888 452.052 395.533C457.624 401.236 461.838 408.59 463.625 416.388C465.253 423.495 464.889 430.677 464.882 437.917L464.863 459.129L464.78 524.085L411.875 524.051L318.167 524.044L332.654 489.486L347.628 454.556L356.133 434.955C357.224 432.416 358.916 429.449 359.484 426.776C358.511 425.033 357.147 423.798 355.842 422.316C352.345 418.343 348.323 414.547 345.1 410.388L357.91 398.709C357.957 397.996 357.999 397.273 357.835 396.572C357.402 394.73 356.686 392.88 356.122 391.072L352.74 380.292L343.717 352.162Z" fill="white"/>
<path d="M167.133 352.875C167.607 352.759 167.684 352.733 168.174 352.875L153.317 398.893C154.956 400.623 157.079 402.017 158.998 403.42L167.454 409.634L156.769 421.125C155.391 422.581 153.068 424.434 152.118 426.165C151.844 426.664 151.827 427.034 151.953 427.583C152.399 429.535 153.816 431.829 154.611 433.698L164.318 455.843L181.299 494.728L188.559 511.643L193.943 524.053L103.625 524.069L46.9454 524.055L46.9656 457.037L46.9175 437.729C46.8785 432.405 46.6185 427.065 47.2691 421.769C47.983 415.957 49.8748 410.164 52.6054 404.995C56.7899 397.073 63.6954 390.277 71.4114 385.774C75.5359 383.368 80.2029 381.809 84.7144 380.302L101.137 374.855L133.526 363.99L167.133 352.875Z" fill="white"/>
<path d="M212.723 126.225C234.722 141.34 260.73 145.896 286.982 145.433L295.502 145.179L304.159 144.686C306.551 144.599 308.68 144.412 310.875 145.592C312.499 146.466 314.083 148.338 314.557 150.119C315.243 152.692 314.844 156.06 314.832 158.745L314.929 175.993C314.953 178.52 314.694 181.334 315 183.827C315.106 184.692 315.771 185.677 316.165 186.443L318.185 190.757C319.938 194.856 321.746 199.308 322.901 203.616C323.868 207.218 323.381 211.445 323.343 215.152C323.327 216.727 323.174 218.345 323.605 219.875C323.938 220.172 324.286 220.513 324.713 220.675C325.969 221.151 333.357 221.271 334.546 220.574C335.014 220.3 335.43 219.817 335.596 219.299C336.15 217.577 336.242 215.472 336.544 213.669L338.6 202.973C339.968 203.382 341.387 203.79 342.625 204.521C345.093 205.976 346.46 209.458 347.134 212.104C348.161 216.138 347.859 220.539 347.264 224.625C346.308 231.19 344.463 237.99 341.073 243.74C339.049 247.172 336.738 249.185 332.866 250.203C332.127 249.842 331.288 249.367 330.472 249.232C329.693 249.104 328.86 249.236 328.234 249.727C326.716 250.918 327.131 254.239 326.884 256.057C324.222 275.667 313.783 292.387 299.602 305.79C295.137 310.011 290.273 313.749 285.387 317.461L276.217 323.679C274.827 324.562 273.263 325.78 271.618 326.061C269.312 326.454 237.602 326.316 236.503 325.928C235.15 325.45 233.751 324.366 232.52 323.599L224.043 318.134C204.752 304.659 189.325 287.568 182.735 264.513C181.997 261.93 181.398 259.284 180.995 256.626C180.773 255.161 180.769 253.608 180.456 252.168C179.742 248.891 175.96 250.423 173.698 250.178C172.86 250.087 172.112 249.706 171.402 249.272C165.213 245.49 163.118 238.52 161.425 231.92C159.296 223.621 156.864 214.433 161.606 206.603C162.901 204.464 164.389 203.046 166.875 202.468C168.416 202.109 170.174 202.316 171.508 203.212C172.785 204.07 173.551 205.586 174.076 206.984C175.592 211.024 175.591 215.042 176.584 219.125C176.732 219.733 177.122 220.168 177.666 220.462C178.545 220.937 179.677 221.047 180.625 220.726C181.291 220.501 181.88 220.024 182.125 219.359C182.522 218.283 182.365 216.683 182.381 215.532C182.425 212.347 182.292 209.059 182.544 205.888C182.781 202.903 184.02 199.951 185.071 197.174C186.553 193.262 188.086 189.251 190.088 185.573C190.363 185.068 190.629 184.708 190.726 184.125C190.894 183.117 190.746 181.953 190.732 180.927L190.728 174.726L190.73 149.194L190.735 143.823C190.736 142.886 190.632 141.784 190.844 140.875C191.151 139.562 192.278 138.317 193.296 137.496C195.352 135.838 198.121 134.63 200.442 133.315L212.723 126.225Z" fill="white"/>
</g>
<defs>
<clipPath id="clip0_1074_22245">
<rect width="512" height="512" rx="256" fill="white"/>
</clipPath>
</defs>
</svg>
