<svg width="18" height="20" viewBox="0 0 18 20" fill="none" xmlns="http://www.w3.org/2000/svg">
<g clip-path="url(#clip0_1966_34346)">
<path d="M5.9375 0.9375C5.9375 0.417969 5.51953 0 5 0C4.48047 0 4.0625 0.417969 4.0625 0.9375V2.5H2.5C1.12109 2.5 0 3.62109 0 5V5.625V7.5V17.5C0 18.8789 1.12109 20 2.5 20H15C16.3789 20 17.5 18.8789 17.5 17.5V7.5V5.625V5C17.5 3.62109 16.3789 2.5 15 2.5H13.4375V0.9375C13.4375 0.417969 13.0195 0 12.5 0C11.9805 0 11.5625 0.417969 11.5625 0.9375V2.5H5.9375V0.9375ZM1.875 7.5H5V9.6875H1.875V7.5ZM1.875 11.5625H5V14.0625H1.875V11.5625ZM6.875 11.5625H10.625V14.0625H6.875V11.5625ZM12.5 11.5625H15.625V14.0625H12.5V11.5625ZM15.625 9.6875H12.5V7.5H15.625V9.6875ZM15.625 15.9375V17.5C15.625 17.8438 15.3438 18.125 15 18.125H12.5V15.9375H15.625ZM10.625 15.9375V18.125H6.875V15.9375H10.625ZM5 15.9375V18.125H2.5C2.15625 18.125 1.875 17.8438 1.875 17.5V15.9375H5ZM10.625 9.6875H6.875V7.5H10.625V9.6875Z" fill="#F87C56"/>
</g>
<defs>
<clipPath id="clip0_1966_34346">
<rect width="17.5" height="20" fill="white"/>
</clipPath>
</defs>
</svg>
