<svg width="18" height="19" viewBox="0 0 18 19" fill="none" xmlns="http://www.w3.org/2000/svg">
<path d="M8.18425 0.68291C8.70161 0.440332 9.29883 0.440332 9.81619 0.68291L17.4065 4.23369C17.7016 4.3708 17.8891 4.66963 17.8891 5.0001C17.8891 5.33057 17.7016 5.6294 17.4065 5.7665L9.81619 9.31729C9.29883 9.55986 8.70161 9.55986 8.18425 9.31729L0.593967 5.7665C0.298828 5.62588 0.111328 5.32705 0.111328 5.0001C0.111328 4.67314 0.298828 4.3708 0.593967 4.23369L8.18425 0.68291ZM15.5592 7.86885L17.4065 8.73369C17.7016 8.8708 17.8891 9.16963 17.8891 9.5001C17.8891 9.83057 17.7016 10.1294 17.4065 10.2665L9.81619 13.8173C9.29883 14.0599 8.70161 14.0599 8.18425 13.8173L0.593967 10.2665C0.298828 10.1259 0.111328 9.82705 0.111328 9.5001C0.111328 9.17314 0.298828 8.8708 0.593967 8.73369L2.44119 7.86885L7.71897 10.3368C8.53147 10.7165 9.46897 10.7165 10.2815 10.3368L15.5592 7.86885ZM10.2815 14.8368L15.5592 12.3688L17.4065 13.2337C17.7016 13.3708 17.8891 13.6696 17.8891 14.0001C17.8891 14.3306 17.7016 14.6294 17.4065 14.7665L9.81619 18.3173C9.29883 18.5599 8.70161 18.5599 8.18425 18.3173L0.593967 14.7665C0.298828 14.6259 0.111328 14.3271 0.111328 14.0001C0.111328 13.6731 0.298828 13.3708 0.593967 13.2337L2.44119 12.3688L7.71897 14.8368C8.53147 15.2165 9.46897 15.2165 10.2815 14.8368Z" fill="white"/>
</svg>
