<svg width="18" height="20" viewBox="0 0 18 20" fill="none" xmlns="http://www.w3.org/2000/svg">
<g clip-path="url(#clip0_1966_34354)">
<path d="M9.25 10C10.5761 10 11.8479 9.47322 12.7855 8.53553C13.7232 7.59785 14.25 6.32608 14.25 5C14.25 3.67392 13.7232 2.40215 12.7855 1.46447C11.8479 0.526784 10.5761 0 9.25 0C7.92392 0 6.65215 0.526784 5.71447 1.46447C4.77678 2.40215 4.25 3.67392 4.25 5C4.25 6.32608 4.77678 7.59785 5.71447 8.53553C6.65215 9.47322 7.92392 10 9.25 10ZM7.46484 11.875C3.61719 11.875 0.5 14.9922 0.5 18.8398C0.5 19.4805 1.01953 20 1.66016 20H16.8398C17.4805 20 18 19.4805 18 18.8398C18 14.9922 14.8828 11.875 11.0352 11.875H7.46484Z" fill="white"/>
</g>
<defs>
<clipPath id="clip0_1966_34354">
<rect width="17.5" height="20" fill="white" transform="translate(0.5)"/>
</clipPath>
</defs>
</svg>
